<mxfile host="Electron" modified="2024-09-15T15:21:42.433Z" agent="Mozilla/5.0 (Windows NT 10.0; Win64; x64) AppleWebKit/537.36 (KHTML, like Gecko) draw.io/24.1.0 Chrome/120.0.6099.109 Electron/28.1.0 Safari/537.36" etag="7E3QLn4TK5QbK6pEvjim" version="24.1.0" type="device">
  <diagram name="Página-1" id="G4ZYtPETL6ZzqIQB9q-T">
    <mxGraphModel dx="10207" dy="3240" grid="1" gridSize="10" guides="1" tooltips="1" connect="1" arrows="1" fold="1" page="1" pageScale="1" pageWidth="827" pageHeight="1169" math="0" shadow="0">
      <root>
        <mxCell id="0" />
        <mxCell id="1" parent="0" />
        <mxCell id="jphlP0V6z0yelU0hMr-J-2" style="edgeStyle=orthogonalEdgeStyle;rounded=0;orthogonalLoop=1;jettySize=auto;html=1;" parent="1" source="jphlP0V6z0yelU0hMr-J-1" target="jphlP0V6z0yelU0hMr-J-3" edge="1">
          <mxGeometry relative="1" as="geometry">
            <mxPoint x="125" y="190" as="targetPoint" />
          </mxGeometry>
        </mxCell>
        <mxCell id="jphlP0V6z0yelU0hMr-J-1" value="inicio" style="strokeWidth=2;html=1;shape=mxgraph.flowchart.terminator;whiteSpace=wrap;" parent="1" vertex="1">
          <mxGeometry x="349" y="40" width="191" height="90" as="geometry" />
        </mxCell>
        <mxCell id="jphlP0V6z0yelU0hMr-J-4" style="edgeStyle=orthogonalEdgeStyle;rounded=0;orthogonalLoop=1;jettySize=auto;html=1;" parent="1" source="jphlP0V6z0yelU0hMr-J-3" target="jphlP0V6z0yelU0hMr-J-5" edge="1">
          <mxGeometry relative="1" as="geometry">
            <mxPoint x="125" y="290" as="targetPoint" />
          </mxGeometry>
        </mxCell>
        <mxCell id="jphlP0V6z0yelU0hMr-J-3" value="destino1=&quot;nacional&quot;" style="shape=parallelogram;html=1;strokeWidth=2;perimeter=parallelogramPerimeter;whiteSpace=wrap;rounded=1;arcSize=12;size=0.23;" parent="1" vertex="1">
          <mxGeometry x="330" y="170" width="230" height="70" as="geometry" />
        </mxCell>
        <mxCell id="jphlP0V6z0yelU0hMr-J-6" style="edgeStyle=orthogonalEdgeStyle;rounded=0;orthogonalLoop=1;jettySize=auto;html=1;" parent="1" source="jphlP0V6z0yelU0hMr-J-5" target="jphlP0V6z0yelU0hMr-J-7" edge="1">
          <mxGeometry relative="1" as="geometry">
            <mxPoint x="125" y="420" as="targetPoint" />
          </mxGeometry>
        </mxCell>
        <mxCell id="jphlP0V6z0yelU0hMr-J-5" value="destino=&quot;sul&quot;" style="shape=parallelogram;html=1;strokeWidth=2;perimeter=parallelogramPerimeter;whiteSpace=wrap;rounded=1;arcSize=12;size=0.23;" parent="1" vertex="1">
          <mxGeometry x="338.25" y="280" width="213.5" height="70" as="geometry" />
        </mxCell>
        <mxCell id="jphlP0V6z0yelU0hMr-J-8" style="edgeStyle=orthogonalEdgeStyle;rounded=0;orthogonalLoop=1;jettySize=auto;html=1;" parent="1" source="jphlP0V6z0yelU0hMr-J-7" target="jphlP0V6z0yelU0hMr-J-9" edge="1">
          <mxGeometry relative="1" as="geometry">
            <mxPoint x="125" y="480" as="targetPoint" />
          </mxGeometry>
        </mxCell>
        <mxCell id="jphlP0V6z0yelU0hMr-J-7" value="numcriancas=9" style="shape=parallelogram;html=1;strokeWidth=2;perimeter=parallelogramPerimeter;whiteSpace=wrap;rounded=1;arcSize=12;size=0.23;" parent="1" vertex="1">
          <mxGeometry x="334.63" y="380" width="215.37" height="70" as="geometry" />
        </mxCell>
        <mxCell id="jphlP0V6z0yelU0hMr-J-10" style="edgeStyle=orthogonalEdgeStyle;rounded=0;orthogonalLoop=1;jettySize=auto;html=1;" parent="1" source="jphlP0V6z0yelU0hMr-J-9" target="jphlP0V6z0yelU0hMr-J-11" edge="1">
          <mxGeometry relative="1" as="geometry">
            <mxPoint x="125" y="620" as="targetPoint" />
          </mxGeometry>
        </mxCell>
        <mxCell id="jphlP0V6z0yelU0hMr-J-9" value="numadultos=4" style="shape=parallelogram;html=1;strokeWidth=2;perimeter=parallelogramPerimeter;whiteSpace=wrap;rounded=1;arcSize=12;size=0.23;" parent="1" vertex="1">
          <mxGeometry x="335.25" y="490" width="214.75" height="70" as="geometry" />
        </mxCell>
        <mxCell id="jphlP0V6z0yelU0hMr-J-45" style="edgeStyle=orthogonalEdgeStyle;rounded=0;orthogonalLoop=1;jettySize=auto;html=1;" parent="1" source="jphlP0V6z0yelU0hMr-J-11" target="jphlP0V6z0yelU0hMr-J-44" edge="1">
          <mxGeometry relative="1" as="geometry" />
        </mxCell>
        <mxCell id="jphlP0V6z0yelU0hMr-J-11" value="classe=&quot;executiva&quot;" style="shape=parallelogram;html=1;strokeWidth=2;perimeter=parallelogramPerimeter;whiteSpace=wrap;rounded=1;arcSize=12;size=0.23;" parent="1" vertex="1">
          <mxGeometry x="332.08" y="610" width="221.09" height="80" as="geometry" />
        </mxCell>
        <mxCell id="jphlP0V6z0yelU0hMr-J-23" style="edgeStyle=orthogonalEdgeStyle;rounded=0;orthogonalLoop=1;jettySize=auto;html=1;" parent="1" target="jphlP0V6z0yelU0hMr-J-24" edge="1">
          <mxGeometry relative="1" as="geometry">
            <mxPoint x="558.3" y="5158.75" as="targetPoint" />
            <mxPoint x="541.5500000000001" y="5386.25" as="sourcePoint" />
          </mxGeometry>
        </mxCell>
        <mxCell id="xelp54pi4x2RU-3CS8bb-120" style="edgeStyle=orthogonalEdgeStyle;rounded=0;orthogonalLoop=1;jettySize=auto;html=1;" edge="1" parent="1" source="jphlP0V6z0yelU0hMr-J-14" target="xelp54pi4x2RU-3CS8bb-121">
          <mxGeometry relative="1" as="geometry">
            <mxPoint x="-1300" y="5386" as="targetPoint" />
          </mxGeometry>
        </mxCell>
        <mxCell id="jphlP0V6z0yelU0hMr-J-14" value="destino1===&quot;nacional&quot;" style="strokeWidth=2;html=1;shape=mxgraph.flowchart.decision;whiteSpace=wrap;" parent="1" vertex="1">
          <mxGeometry x="338.25" y="5328.75" width="201.25" height="115" as="geometry" />
        </mxCell>
        <mxCell id="xelp54pi4x2RU-3CS8bb-53" style="edgeStyle=orthogonalEdgeStyle;rounded=0;orthogonalLoop=1;jettySize=auto;html=1;" edge="1" parent="1" source="jphlP0V6z0yelU0hMr-J-17" target="xelp54pi4x2RU-3CS8bb-89">
          <mxGeometry relative="1" as="geometry">
            <mxPoint x="-70" y="5651" as="targetPoint" />
          </mxGeometry>
        </mxCell>
        <mxCell id="xelp54pi4x2RU-3CS8bb-56" style="edgeStyle=orthogonalEdgeStyle;rounded=0;orthogonalLoop=1;jettySize=auto;html=1;" edge="1" parent="1" source="jphlP0V6z0yelU0hMr-J-17" target="xelp54pi4x2RU-3CS8bb-57">
          <mxGeometry relative="1" as="geometry">
            <mxPoint x="699.31" y="5790" as="targetPoint" />
          </mxGeometry>
        </mxCell>
        <mxCell id="jphlP0V6z0yelU0hMr-J-17" value="destino===&quot;norte&quot;" style="strokeWidth=2;html=1;shape=mxgraph.flowchart.decision;whiteSpace=wrap;" parent="1" vertex="1">
          <mxGeometry x="604.31" y="5603.75" width="190" height="95" as="geometry" />
        </mxCell>
        <mxCell id="jphlP0V6z0yelU0hMr-J-18" value="sim" style="text;html=1;strokeColor=none;fillColor=none;align=center;verticalAlign=middle;whiteSpace=wrap;rounded=0;" parent="1" vertex="1">
          <mxGeometry x="540.4599999999999" y="5363.75" width="60" height="30" as="geometry" />
        </mxCell>
        <mxCell id="jphlP0V6z0yelU0hMr-J-20" value="não" style="text;html=1;strokeColor=none;fillColor=none;align=center;verticalAlign=middle;whiteSpace=wrap;rounded=0;rotation=0;" parent="1" vertex="1">
          <mxGeometry x="229.82" y="5328.75" width="60" height="30" as="geometry" />
        </mxCell>
        <mxCell id="jphlP0V6z0yelU0hMr-J-29" style="edgeStyle=orthogonalEdgeStyle;rounded=0;orthogonalLoop=1;jettySize=auto;html=1;" parent="1" source="jphlP0V6z0yelU0hMr-J-24" target="jphlP0V6z0yelU0hMr-J-17" edge="1">
          <mxGeometry relative="1" as="geometry" />
        </mxCell>
        <mxCell id="jphlP0V6z0yelU0hMr-J-24" value="(&quot;Voo&quot;, destino1)" style="strokeWidth=2;html=1;shape=mxgraph.flowchart.display;whiteSpace=wrap;" parent="1" vertex="1">
          <mxGeometry x="606.3199999999999" y="5340" width="185.99" height="92.5" as="geometry" />
        </mxCell>
        <mxCell id="jphlP0V6z0yelU0hMr-J-57" style="edgeStyle=orthogonalEdgeStyle;rounded=0;orthogonalLoop=1;jettySize=auto;html=1;" parent="1" source="jphlP0V6z0yelU0hMr-J-44" target="jphlP0V6z0yelU0hMr-J-58" edge="1">
          <mxGeometry relative="1" as="geometry">
            <mxPoint x="442.6300000000001" y="920" as="targetPoint" />
          </mxGeometry>
        </mxCell>
        <mxCell id="jphlP0V6z0yelU0hMr-J-44" value="passageiros&amp;lt;numadultos+numcriancas" style="rounded=1;whiteSpace=wrap;html=1;absoluteArcSize=1;arcSize=14;strokeWidth=2;" parent="1" vertex="1">
          <mxGeometry x="319.63" y="740" width="246" height="70" as="geometry" />
        </mxCell>
        <mxCell id="jphlP0V6z0yelU0hMr-J-59" style="edgeStyle=orthogonalEdgeStyle;rounded=0;orthogonalLoop=1;jettySize=auto;html=1;" parent="1" source="jphlP0V6z0yelU0hMr-J-58" target="jphlP0V6z0yelU0hMr-J-60" edge="1">
          <mxGeometry relative="1" as="geometry">
            <mxPoint x="442.31500000000005" y="1070" as="targetPoint" />
          </mxGeometry>
        </mxCell>
        <mxCell id="jphlP0V6z0yelU0hMr-J-58" value="adultonorteeco&amp;lt;500*numadultos" style="rounded=1;whiteSpace=wrap;html=1;absoluteArcSize=1;arcSize=14;strokeWidth=2;" parent="1" vertex="1">
          <mxGeometry x="328.63" y="840" width="227.37" height="70" as="geometry" />
        </mxCell>
        <mxCell id="jphlP0V6z0yelU0hMr-J-61" style="edgeStyle=orthogonalEdgeStyle;rounded=0;orthogonalLoop=1;jettySize=auto;html=1;" parent="1" source="jphlP0V6z0yelU0hMr-J-60" target="jphlP0V6z0yelU0hMr-J-62" edge="1">
          <mxGeometry relative="1" as="geometry">
            <mxPoint x="442.6299999999999" y="1240" as="targetPoint" />
          </mxGeometry>
        </mxCell>
        <mxCell id="jphlP0V6z0yelU0hMr-J-60" value="criancanorteeco&amp;lt;400*numcriancas" style="rounded=1;whiteSpace=wrap;html=1;absoluteArcSize=1;arcSize=14;strokeWidth=2;" parent="1" vertex="1">
          <mxGeometry x="323.79" y="930" width="237.68" height="60" as="geometry" />
        </mxCell>
        <mxCell id="jphlP0V6z0yelU0hMr-J-63" style="edgeStyle=orthogonalEdgeStyle;rounded=0;orthogonalLoop=1;jettySize=auto;html=1;" parent="1" source="jphlP0V6z0yelU0hMr-J-62" target="jphlP0V6z0yelU0hMr-J-64" edge="1">
          <mxGeometry relative="1" as="geometry">
            <mxPoint x="442.635" y="1380" as="targetPoint" />
          </mxGeometry>
        </mxCell>
        <mxCell id="jphlP0V6z0yelU0hMr-J-62" value="ttnorteeco&amp;lt;adultonorteeco+criancanorteeco" style="rounded=1;whiteSpace=wrap;html=1;absoluteArcSize=1;arcSize=14;strokeWidth=2;" parent="1" vertex="1">
          <mxGeometry x="314.28" y="1020" width="256.05" height="80" as="geometry" />
        </mxCell>
        <mxCell id="jphlP0V6z0yelU0hMr-J-65" style="edgeStyle=orthogonalEdgeStyle;rounded=0;orthogonalLoop=1;jettySize=auto;html=1;" parent="1" source="jphlP0V6z0yelU0hMr-J-64" target="jphlP0V6z0yelU0hMr-J-66" edge="1">
          <mxGeometry relative="1" as="geometry">
            <mxPoint x="442.30999999999995" y="1520" as="targetPoint" />
          </mxGeometry>
        </mxCell>
        <mxCell id="jphlP0V6z0yelU0hMr-J-64" value="adultonorteexe&amp;lt;[500+(500*20/200)]*numadultos" style="rounded=1;whiteSpace=wrap;html=1;absoluteArcSize=1;arcSize=14;strokeWidth=2;" parent="1" vertex="1">
          <mxGeometry x="302.31" y="1190" width="280" height="100" as="geometry" />
        </mxCell>
        <mxCell id="jphlP0V6z0yelU0hMr-J-67" style="edgeStyle=orthogonalEdgeStyle;rounded=0;orthogonalLoop=1;jettySize=auto;html=1;" parent="1" source="jphlP0V6z0yelU0hMr-J-66" target="jphlP0V6z0yelU0hMr-J-68" edge="1">
          <mxGeometry relative="1" as="geometry">
            <mxPoint x="442.3149999999998" y="1650" as="targetPoint" />
          </mxGeometry>
        </mxCell>
        <mxCell id="jphlP0V6z0yelU0hMr-J-66" value="criancanorteexe&amp;lt;[400+(400*10/100)]" style="rounded=1;whiteSpace=wrap;html=1;absoluteArcSize=1;arcSize=14;strokeWidth=2;" parent="1" vertex="1">
          <mxGeometry x="316.73" y="1340" width="251.16" height="80" as="geometry" />
        </mxCell>
        <mxCell id="5lfpihE7rvMK0UfdTGnU-1" style="edgeStyle=orthogonalEdgeStyle;rounded=0;orthogonalLoop=1;jettySize=auto;html=1;" parent="1" source="jphlP0V6z0yelU0hMr-J-68" edge="1" target="xelp54pi4x2RU-3CS8bb-1">
          <mxGeometry relative="1" as="geometry">
            <mxPoint x="442.31500000000005" y="1820" as="targetPoint" />
          </mxGeometry>
        </mxCell>
        <mxCell id="jphlP0V6z0yelU0hMr-J-68" value="ttnorteexe&amp;lt;criancanorteexe+adultonorteexe" style="rounded=1;whiteSpace=wrap;html=1;absoluteArcSize=1;arcSize=14;strokeWidth=2;" parent="1" vertex="1">
          <mxGeometry x="323.79" y="1450" width="237.69" height="70" as="geometry" />
        </mxCell>
        <mxCell id="xelp54pi4x2RU-3CS8bb-2" style="edgeStyle=orthogonalEdgeStyle;rounded=0;orthogonalLoop=1;jettySize=auto;html=1;" edge="1" parent="1" source="xelp54pi4x2RU-3CS8bb-1" target="xelp54pi4x2RU-3CS8bb-3">
          <mxGeometry relative="1" as="geometry">
            <mxPoint x="442.625" y="1730" as="targetPoint" />
          </mxGeometry>
        </mxCell>
        <mxCell id="xelp54pi4x2RU-3CS8bb-1" value="&lt;div style=&quot;font-family: Consolas, &amp;quot;Courier New&amp;quot;, monospace; font-size: 14px; line-height: 19px; white-space: pre;&quot;&gt;criancasuleco&amp;lt;200*numcriancas&lt;/div&gt;" style="rounded=1;whiteSpace=wrap;html=1;absoluteArcSize=1;arcSize=14;strokeWidth=2;" vertex="1" parent="1">
          <mxGeometry x="310.89" y="1570" width="263.47" height="70" as="geometry" />
        </mxCell>
        <mxCell id="xelp54pi4x2RU-3CS8bb-4" style="edgeStyle=orthogonalEdgeStyle;rounded=0;orthogonalLoop=1;jettySize=auto;html=1;" edge="1" parent="1" source="xelp54pi4x2RU-3CS8bb-3" target="xelp54pi4x2RU-3CS8bb-5">
          <mxGeometry relative="1" as="geometry">
            <mxPoint x="443.31500000000005" y="1860" as="targetPoint" />
          </mxGeometry>
        </mxCell>
        <mxCell id="xelp54pi4x2RU-3CS8bb-3" value="&lt;div style=&quot;font-family: Consolas, &amp;quot;Courier New&amp;quot;, monospace; font-size: 14px; line-height: 19px; white-space: pre;&quot;&gt;&lt;font color=&quot;#161d21&quot;&gt;adultosuleco&amp;lt;200*numadultos&lt;/font&gt;&lt;/div&gt;" style="rounded=1;whiteSpace=wrap;html=1;absoluteArcSize=1;arcSize=14;strokeWidth=2;" vertex="1" parent="1">
          <mxGeometry x="312" y="1680" width="262.63" height="100" as="geometry" />
        </mxCell>
        <mxCell id="xelp54pi4x2RU-3CS8bb-6" style="edgeStyle=orthogonalEdgeStyle;rounded=0;orthogonalLoop=1;jettySize=auto;html=1;" edge="1" parent="1" source="xelp54pi4x2RU-3CS8bb-5" target="xelp54pi4x2RU-3CS8bb-7">
          <mxGeometry relative="1" as="geometry">
            <mxPoint x="442.635" y="1980" as="targetPoint" />
          </mxGeometry>
        </mxCell>
        <mxCell id="xelp54pi4x2RU-3CS8bb-5" value="&lt;div style=&quot;font-family: Consolas, &amp;quot;Courier New&amp;quot;, monospace; font-size: 14px; line-height: 19px; white-space: pre;&quot;&gt;&lt;font color=&quot;#0a0a0a&quot;&gt;ttecosul&amp;lt;criancasuleco+adultosuleco&lt;/font&gt;&lt;/div&gt;" style="rounded=1;whiteSpace=wrap;html=1;absoluteArcSize=1;arcSize=14;strokeWidth=2;" vertex="1" parent="1">
          <mxGeometry x="289.82" y="1810" width="305.63" height="100" as="geometry" />
        </mxCell>
        <mxCell id="xelp54pi4x2RU-3CS8bb-8" style="edgeStyle=orthogonalEdgeStyle;rounded=0;orthogonalLoop=1;jettySize=auto;html=1;" edge="1" parent="1" source="xelp54pi4x2RU-3CS8bb-7" target="xelp54pi4x2RU-3CS8bb-9">
          <mxGeometry relative="1" as="geometry">
            <mxPoint x="442.31999999999994" y="2110" as="targetPoint" />
          </mxGeometry>
        </mxCell>
        <mxCell id="xelp54pi4x2RU-3CS8bb-7" value="&lt;div style=&quot;font-family: Consolas, &amp;quot;Courier New&amp;quot;, monospace; font-size: 14px; line-height: 19px; white-space: pre;&quot;&gt;&lt;font color=&quot;#0a0a0a&quot;&gt;criancasulexe&amp;lt;400*numcriancas&lt;/font&gt;&lt;span style=&quot;color: rgb(167, 219, 247); background-color: rgb(40, 40, 34);&quot;&gt;&lt;br&gt;&lt;/span&gt;&lt;/div&gt;" style="rounded=1;whiteSpace=wrap;html=1;absoluteArcSize=1;arcSize=14;strokeWidth=2;" vertex="1" parent="1">
          <mxGeometry x="311" y="1940" width="262.64" height="100" as="geometry" />
        </mxCell>
        <mxCell id="xelp54pi4x2RU-3CS8bb-10" style="edgeStyle=orthogonalEdgeStyle;rounded=0;orthogonalLoop=1;jettySize=auto;html=1;" edge="1" parent="1" source="xelp54pi4x2RU-3CS8bb-9" target="xelp54pi4x2RU-3CS8bb-11">
          <mxGeometry relative="1" as="geometry">
            <mxPoint x="442.29999999999995" y="2240" as="targetPoint" />
          </mxGeometry>
        </mxCell>
        <mxCell id="xelp54pi4x2RU-3CS8bb-9" value="&lt;div style=&quot;font-family: Consolas, &amp;quot;Courier New&amp;quot;, monospace; font-size: 14px; line-height: 19px; white-space: pre;&quot;&gt;&lt;font color=&quot;#0a0a0a&quot;&gt;adultosulexe&amp;lt;400 * numadultos&lt;/font&gt;&lt;/div&gt;" style="rounded=1;whiteSpace=wrap;html=1;absoluteArcSize=1;arcSize=14;strokeWidth=2;" vertex="1" parent="1">
          <mxGeometry x="321.14" y="2070" width="242.32" height="100" as="geometry" />
        </mxCell>
        <mxCell id="xelp54pi4x2RU-3CS8bb-12" style="edgeStyle=orthogonalEdgeStyle;rounded=0;orthogonalLoop=1;jettySize=auto;html=1;" edge="1" parent="1" source="xelp54pi4x2RU-3CS8bb-11" target="xelp54pi4x2RU-3CS8bb-14">
          <mxGeometry relative="1" as="geometry">
            <mxPoint x="442" y="2380" as="targetPoint" />
          </mxGeometry>
        </mxCell>
        <mxCell id="xelp54pi4x2RU-3CS8bb-11" value="&lt;div style=&quot;font-family: Consolas, &amp;quot;Courier New&amp;quot;, monospace; font-size: 14px; line-height: 19px; white-space: pre;&quot;&gt;&lt;font color=&quot;#0a0a0a&quot;&gt;ttexesul&amp;lt;criancasulexe + adultosulexe&lt;/font&gt;&lt;/div&gt;" style="rounded=1;whiteSpace=wrap;html=1;absoluteArcSize=1;arcSize=14;strokeWidth=2;" vertex="1" parent="1">
          <mxGeometry x="291.15" y="2210" width="302.3" height="100" as="geometry" />
        </mxCell>
        <mxCell id="xelp54pi4x2RU-3CS8bb-15" style="edgeStyle=orthogonalEdgeStyle;rounded=0;orthogonalLoop=1;jettySize=auto;html=1;" edge="1" parent="1" source="xelp54pi4x2RU-3CS8bb-14" target="xelp54pi4x2RU-3CS8bb-16">
          <mxGeometry relative="1" as="geometry">
            <mxPoint x="442.29999999999995" y="2510" as="targetPoint" />
          </mxGeometry>
        </mxCell>
        <mxCell id="xelp54pi4x2RU-3CS8bb-14" value="&lt;div style=&quot;font-family: Consolas, &amp;quot;Courier New&amp;quot;, monospace; font-size: 14px; line-height: 19px; white-space: pre;&quot;&gt;&lt;font color=&quot;#0a0a0a&quot;&gt;criancaasiaeco&amp;lt;1600 * numcriancas&lt;/font&gt;&lt;/div&gt;" style="rounded=1;whiteSpace=wrap;html=1;absoluteArcSize=1;arcSize=14;strokeWidth=2;" vertex="1" parent="1">
          <mxGeometry x="307.21999999999997" y="2360" width="270.16" height="100" as="geometry" />
        </mxCell>
        <mxCell id="xelp54pi4x2RU-3CS8bb-17" style="edgeStyle=orthogonalEdgeStyle;rounded=0;orthogonalLoop=1;jettySize=auto;html=1;" edge="1" parent="1" source="xelp54pi4x2RU-3CS8bb-16" target="xelp54pi4x2RU-3CS8bb-18">
          <mxGeometry relative="1" as="geometry">
            <mxPoint x="442.3000000000002" y="2690" as="targetPoint" />
          </mxGeometry>
        </mxCell>
        <mxCell id="xelp54pi4x2RU-3CS8bb-16" value="&lt;div style=&quot;font-family: Consolas, &amp;quot;Courier New&amp;quot;, monospace; font-size: 14px; line-height: 19px; white-space: pre;&quot;&gt;&lt;font color=&quot;#0a0a0a&quot;&gt;adultosasiaeco&amp;lt;1600 * numadultos&lt;/font&gt;&lt;/div&gt;" style="rounded=1;whiteSpace=wrap;html=1;absoluteArcSize=1;arcSize=14;strokeWidth=2;" vertex="1" parent="1">
          <mxGeometry x="306.15" y="2520" width="272.3" height="100" as="geometry" />
        </mxCell>
        <mxCell id="xelp54pi4x2RU-3CS8bb-19" style="edgeStyle=orthogonalEdgeStyle;rounded=0;orthogonalLoop=1;jettySize=auto;html=1;" edge="1" parent="1" source="xelp54pi4x2RU-3CS8bb-18" target="xelp54pi4x2RU-3CS8bb-20">
          <mxGeometry relative="1" as="geometry">
            <mxPoint x="442.3000000000002" y="2860" as="targetPoint" />
          </mxGeometry>
        </mxCell>
        <mxCell id="xelp54pi4x2RU-3CS8bb-18" value="&lt;div style=&quot;font-family: Consolas, &amp;quot;Courier New&amp;quot;, monospace; font-size: 14px; line-height: 19px; white-space: pre;&quot;&gt;&lt;font color=&quot;#0a0a0a&quot;&gt;ttasiaeco&amp;lt;criancaasiaeco + adultosasiaeco&lt;/font&gt;&lt;/div&gt;" style="rounded=1;whiteSpace=wrap;html=1;absoluteArcSize=1;arcSize=14;strokeWidth=2;" vertex="1" parent="1">
          <mxGeometry x="281.15" y="2660" width="322.3" height="100" as="geometry" />
        </mxCell>
        <mxCell id="xelp54pi4x2RU-3CS8bb-21" style="edgeStyle=orthogonalEdgeStyle;rounded=0;orthogonalLoop=1;jettySize=auto;html=1;" edge="1" parent="1" source="xelp54pi4x2RU-3CS8bb-20" target="xelp54pi4x2RU-3CS8bb-22">
          <mxGeometry relative="1" as="geometry">
            <mxPoint x="442.3000000000002" y="2980" as="targetPoint" />
          </mxGeometry>
        </mxCell>
        <mxCell id="xelp54pi4x2RU-3CS8bb-20" value="&lt;div style=&quot;font-family: Consolas, &amp;quot;Courier New&amp;quot;, monospace; font-size: 14px; line-height: 19px; white-space: pre;&quot;&gt;&lt;font color=&quot;#0a0a0a&quot;&gt;adultoasiaexe&amp;lt;2000 * numadultos&lt;/font&gt;&lt;/div&gt;" style="rounded=1;whiteSpace=wrap;html=1;absoluteArcSize=1;arcSize=14;strokeWidth=2;" vertex="1" parent="1">
          <mxGeometry x="286.15" y="2810" width="312.3" height="100" as="geometry" />
        </mxCell>
        <mxCell id="xelp54pi4x2RU-3CS8bb-23" style="edgeStyle=orthogonalEdgeStyle;rounded=0;orthogonalLoop=1;jettySize=auto;html=1;" edge="1" parent="1" source="xelp54pi4x2RU-3CS8bb-22" target="xelp54pi4x2RU-3CS8bb-24">
          <mxGeometry relative="1" as="geometry">
            <mxPoint x="442.3000000000002" y="3150" as="targetPoint" />
          </mxGeometry>
        </mxCell>
        <mxCell id="xelp54pi4x2RU-3CS8bb-22" value="&lt;div style=&quot;font-family: Consolas, &amp;quot;Courier New&amp;quot;, monospace; font-size: 14px; line-height: 19px; white-space: pre;&quot;&gt;&lt;font color=&quot;#0a0a0a&quot;&gt;criancasasiaexe&amp;lt;2000 * numcriancas&lt;/font&gt;&lt;/div&gt;" style="rounded=1;whiteSpace=wrap;html=1;absoluteArcSize=1;arcSize=14;strokeWidth=2;" vertex="1" parent="1">
          <mxGeometry x="306.15" y="2950" width="272.3" height="100" as="geometry" />
        </mxCell>
        <mxCell id="xelp54pi4x2RU-3CS8bb-25" style="edgeStyle=orthogonalEdgeStyle;rounded=0;orthogonalLoop=1;jettySize=auto;html=1;" edge="1" parent="1" source="xelp54pi4x2RU-3CS8bb-24" target="xelp54pi4x2RU-3CS8bb-26">
          <mxGeometry relative="1" as="geometry">
            <mxPoint x="441.52499999999986" y="3260" as="targetPoint" />
          </mxGeometry>
        </mxCell>
        <mxCell id="xelp54pi4x2RU-3CS8bb-24" value="&lt;div style=&quot;font-family: Consolas, &amp;quot;Courier New&amp;quot;, monospace; font-size: 14px; line-height: 19px; white-space: pre;&quot;&gt;&lt;font color=&quot;#0a0a0a&quot;&gt;ttasiaexe&amp;lt;adultoasiaexe + criancasasiaexe&lt;/font&gt;&lt;/div&gt;" style="rounded=1;whiteSpace=wrap;html=1;absoluteArcSize=1;arcSize=14;strokeWidth=2;" vertex="1" parent="1">
          <mxGeometry x="279.59999999999997" y="3090" width="323.85" height="100" as="geometry" />
        </mxCell>
        <mxCell id="xelp54pi4x2RU-3CS8bb-27" style="edgeStyle=orthogonalEdgeStyle;rounded=0;orthogonalLoop=1;jettySize=auto;html=1;" edge="1" parent="1" source="xelp54pi4x2RU-3CS8bb-26" target="xelp54pi4x2RU-3CS8bb-28">
          <mxGeometry relative="1" as="geometry">
            <mxPoint x="441.52" y="3430" as="targetPoint" />
          </mxGeometry>
        </mxCell>
        <mxCell id="xelp54pi4x2RU-3CS8bb-26" value="&lt;div style=&quot;font-family: Consolas, &amp;quot;Courier New&amp;quot;, monospace; font-size: 14px; line-height: 19px; white-space: pre;&quot;&gt;&lt;font color=&quot;#0a0a0a&quot;&gt;criancaafrieco&amp;lt;1200 * numcriancas&lt;/font&gt;&lt;/div&gt;" style="rounded=1;whiteSpace=wrap;html=1;absoluteArcSize=1;arcSize=14;strokeWidth=2;" vertex="1" parent="1">
          <mxGeometry x="305.76" y="3240" width="271.52" height="100" as="geometry" />
        </mxCell>
        <mxCell id="xelp54pi4x2RU-3CS8bb-29" style="edgeStyle=orthogonalEdgeStyle;rounded=0;orthogonalLoop=1;jettySize=auto;html=1;" edge="1" parent="1" source="xelp54pi4x2RU-3CS8bb-28" target="xelp54pi4x2RU-3CS8bb-30">
          <mxGeometry relative="1" as="geometry">
            <mxPoint x="441.76" y="3590" as="targetPoint" />
          </mxGeometry>
        </mxCell>
        <mxCell id="xelp54pi4x2RU-3CS8bb-28" value="&lt;div style=&quot;font-family: Consolas, &amp;quot;Courier New&amp;quot;, monospace; font-size: 14px; line-height: 19px; white-space: pre;&quot;&gt;&lt;font color=&quot;#0a0a0a&quot;&gt;adultoafrieco&amp;lt;1200 * numadultos&lt;/font&gt;&lt;/div&gt;" style="rounded=1;whiteSpace=wrap;html=1;absoluteArcSize=1;arcSize=14;strokeWidth=2;" vertex="1" parent="1">
          <mxGeometry x="311" y="3390" width="261.52" height="100" as="geometry" />
        </mxCell>
        <mxCell id="xelp54pi4x2RU-3CS8bb-31" style="edgeStyle=orthogonalEdgeStyle;rounded=0;orthogonalLoop=1;jettySize=auto;html=1;" edge="1" parent="1" source="xelp54pi4x2RU-3CS8bb-30" target="xelp54pi4x2RU-3CS8bb-32">
          <mxGeometry relative="1" as="geometry">
            <mxPoint x="442.6350000000002" y="3730" as="targetPoint" />
          </mxGeometry>
        </mxCell>
        <mxCell id="xelp54pi4x2RU-3CS8bb-30" value="&lt;div style=&quot;font-family: Consolas, &amp;quot;Courier New&amp;quot;, monospace; font-size: 14px; line-height: 19px; white-space: pre;&quot;&gt;&lt;font color=&quot;#0a0a0a&quot;&gt;ttafrieco&amp;lt;criancaafrieco + adultoafrieco&lt;/font&gt;&lt;/div&gt;" style="rounded=1;whiteSpace=wrap;html=1;absoluteArcSize=1;arcSize=14;strokeWidth=2;" vertex="1" parent="1">
          <mxGeometry x="280.88" y="3550" width="323.51" height="100" as="geometry" />
        </mxCell>
        <mxCell id="xelp54pi4x2RU-3CS8bb-33" style="edgeStyle=orthogonalEdgeStyle;rounded=0;orthogonalLoop=1;jettySize=auto;html=1;" edge="1" parent="1" source="xelp54pi4x2RU-3CS8bb-32" target="xelp54pi4x2RU-3CS8bb-34">
          <mxGeometry relative="1" as="geometry">
            <mxPoint x="442.31999999999994" y="3860" as="targetPoint" />
          </mxGeometry>
        </mxCell>
        <mxCell id="xelp54pi4x2RU-3CS8bb-32" value="&lt;div style=&quot;font-family: Consolas, &amp;quot;Courier New&amp;quot;, monospace; font-size: 14px; line-height: 19px; white-space: pre;&quot;&gt;&lt;font color=&quot;#0a0a0a&quot;&gt;criancaafriexe&amp;lt;1900 * numcriancas&lt;/font&gt;&lt;/div&gt;" style="rounded=1;whiteSpace=wrap;html=1;absoluteArcSize=1;arcSize=14;strokeWidth=2;" vertex="1" parent="1">
          <mxGeometry x="306" y="3690" width="272.64" height="100" as="geometry" />
        </mxCell>
        <mxCell id="xelp54pi4x2RU-3CS8bb-35" style="edgeStyle=orthogonalEdgeStyle;rounded=0;orthogonalLoop=1;jettySize=auto;html=1;" edge="1" parent="1" source="xelp54pi4x2RU-3CS8bb-34" target="xelp54pi4x2RU-3CS8bb-36">
          <mxGeometry relative="1" as="geometry">
            <mxPoint x="442.29999999999995" y="4030" as="targetPoint" />
          </mxGeometry>
        </mxCell>
        <mxCell id="xelp54pi4x2RU-3CS8bb-34" value="&lt;div style=&quot;font-family: Consolas, &amp;quot;Courier New&amp;quot;, monospace; font-size: 14px; line-height: 19px; white-space: pre;&quot;&gt;&lt;font color=&quot;#0a0a0a&quot;&gt;adultoafriexe&amp;lt;1900 * numadultos&lt;/font&gt;&lt;/div&gt;" style="rounded=1;whiteSpace=wrap;html=1;absoluteArcSize=1;arcSize=14;strokeWidth=2;" vertex="1" parent="1">
          <mxGeometry x="316.14" y="3830" width="252.32" height="100" as="geometry" />
        </mxCell>
        <mxCell id="xelp54pi4x2RU-3CS8bb-37" style="edgeStyle=orthogonalEdgeStyle;rounded=0;orthogonalLoop=1;jettySize=auto;html=1;" edge="1" parent="1" source="xelp54pi4x2RU-3CS8bb-36" target="xelp54pi4x2RU-3CS8bb-38">
          <mxGeometry relative="1" as="geometry">
            <mxPoint x="441.52" y="4140" as="targetPoint" />
          </mxGeometry>
        </mxCell>
        <mxCell id="xelp54pi4x2RU-3CS8bb-36" value="&lt;div style=&quot;font-family: Consolas, &amp;quot;Courier New&amp;quot;, monospace; font-size: 14px; line-height: 19px; white-space: pre;&quot;&gt;&lt;font color=&quot;#0a0a0a&quot;&gt;ttafriexe&amp;lt;criancaafriexe + adultoafriexe&lt;/font&gt;&lt;/div&gt;" style="rounded=1;whiteSpace=wrap;html=1;absoluteArcSize=1;arcSize=14;strokeWidth=2;" vertex="1" parent="1">
          <mxGeometry x="285.37" y="3970" width="312.3" height="100" as="geometry" />
        </mxCell>
        <mxCell id="xelp54pi4x2RU-3CS8bb-39" style="edgeStyle=orthogonalEdgeStyle;rounded=0;orthogonalLoop=1;jettySize=auto;html=1;" edge="1" parent="1" source="xelp54pi4x2RU-3CS8bb-38" target="xelp54pi4x2RU-3CS8bb-40">
          <mxGeometry relative="1" as="geometry">
            <mxPoint x="441.39999999999986" y="4280" as="targetPoint" />
          </mxGeometry>
        </mxCell>
        <mxCell id="xelp54pi4x2RU-3CS8bb-38" value="&lt;div style=&quot;font-family: Consolas, &amp;quot;Courier New&amp;quot;, monospace; font-size: 14px; line-height: 19px; white-space: pre;&quot;&gt;&lt;font color=&quot;#0a0a0a&quot;&gt;criancaeuroeco&amp;lt;1800 * numcriancas&lt;/font&gt;&lt;/div&gt;" style="rounded=1;whiteSpace=wrap;html=1;absoluteArcSize=1;arcSize=14;strokeWidth=2;" vertex="1" parent="1">
          <mxGeometry x="310.64" y="4140" width="261.52" height="100" as="geometry" />
        </mxCell>
        <mxCell id="xelp54pi4x2RU-3CS8bb-41" style="edgeStyle=orthogonalEdgeStyle;rounded=0;orthogonalLoop=1;jettySize=auto;html=1;" edge="1" parent="1" source="xelp54pi4x2RU-3CS8bb-40" target="xelp54pi4x2RU-3CS8bb-42">
          <mxGeometry relative="1" as="geometry">
            <mxPoint x="441.1399999999999" y="4470" as="targetPoint" />
          </mxGeometry>
        </mxCell>
        <mxCell id="xelp54pi4x2RU-3CS8bb-40" value="&lt;div style=&quot;font-family: Consolas, &amp;quot;Courier New&amp;quot;, monospace; font-size: 14px; line-height: 19px; white-space: pre;&quot;&gt;&lt;div style=&quot;line-height: 19px;&quot;&gt;&lt;font color=&quot;#0a0a0a&quot;&gt;adultoeuroeco&amp;lt;1800 * numadultos&lt;/font&gt;&lt;/div&gt;&lt;/div&gt;" style="rounded=1;whiteSpace=wrap;html=1;absoluteArcSize=1;arcSize=14;strokeWidth=2;" vertex="1" parent="1">
          <mxGeometry x="306" y="4310" width="271.14" height="100" as="geometry" />
        </mxCell>
        <mxCell id="xelp54pi4x2RU-3CS8bb-43" style="edgeStyle=orthogonalEdgeStyle;rounded=0;orthogonalLoop=1;jettySize=auto;html=1;" edge="1" parent="1" source="xelp54pi4x2RU-3CS8bb-42" target="xelp54pi4x2RU-3CS8bb-44">
          <mxGeometry relative="1" as="geometry">
            <mxPoint x="441.39999999999986" y="4620" as="targetPoint" />
          </mxGeometry>
        </mxCell>
        <mxCell id="xelp54pi4x2RU-3CS8bb-42" value="&lt;div style=&quot;font-family: Consolas, &amp;quot;Courier New&amp;quot;, monospace; font-size: 14px; line-height: 19px; white-space: pre;&quot;&gt;&lt;font color=&quot;#0a0a0a&quot;&gt;tteuroeco&amp;lt;criancaeuroeco + adultoeuroeco&lt;/font&gt;&lt;/div&gt;" style="rounded=1;whiteSpace=wrap;html=1;absoluteArcSize=1;arcSize=14;strokeWidth=2;" vertex="1" parent="1">
          <mxGeometry x="270.83" y="4480" width="341.14" height="100" as="geometry" />
        </mxCell>
        <mxCell id="xelp54pi4x2RU-3CS8bb-45" style="edgeStyle=orthogonalEdgeStyle;rounded=0;orthogonalLoop=1;jettySize=auto;html=1;" edge="1" parent="1" source="xelp54pi4x2RU-3CS8bb-44" target="xelp54pi4x2RU-3CS8bb-46">
          <mxGeometry relative="1" as="geometry">
            <mxPoint x="441.76" y="4880" as="targetPoint" />
          </mxGeometry>
        </mxCell>
        <mxCell id="xelp54pi4x2RU-3CS8bb-44" value="&lt;div style=&quot;font-family: Consolas, &amp;quot;Courier New&amp;quot;, monospace; font-size: 14px; line-height: 19px; white-space: pre;&quot;&gt;&lt;font color=&quot;#0a0a0a&quot;&gt;tteuroeco&amp;lt;criancaeuroeco + adultoeuroeco&lt;/font&gt;&lt;/div&gt;" style="rounded=1;whiteSpace=wrap;html=1;absoluteArcSize=1;arcSize=14;strokeWidth=2;" vertex="1" parent="1">
          <mxGeometry x="276.06" y="4710" width="331.4" height="100" as="geometry" />
        </mxCell>
        <mxCell id="xelp54pi4x2RU-3CS8bb-47" style="edgeStyle=orthogonalEdgeStyle;rounded=0;orthogonalLoop=1;jettySize=auto;html=1;" edge="1" parent="1" source="xelp54pi4x2RU-3CS8bb-46" target="xelp54pi4x2RU-3CS8bb-48">
          <mxGeometry relative="1" as="geometry">
            <mxPoint x="441.4000000000001" y="5050" as="targetPoint" />
          </mxGeometry>
        </mxCell>
        <mxCell id="xelp54pi4x2RU-3CS8bb-46" value="&lt;div style=&quot;font-family: Consolas, &amp;quot;Courier New&amp;quot;, monospace; font-size: 14px; line-height: 19px; white-space: pre;&quot;&gt;&lt;font color=&quot;#0a0a0a&quot;&gt;criancaeuroexe&amp;lt;2300 * numcriancas&lt;/font&gt;&lt;/div&gt;" style="rounded=1;whiteSpace=wrap;html=1;absoluteArcSize=1;arcSize=14;strokeWidth=2;" vertex="1" parent="1">
          <mxGeometry x="300.52" y="4860" width="281.76" height="100" as="geometry" />
        </mxCell>
        <mxCell id="xelp54pi4x2RU-3CS8bb-49" style="edgeStyle=orthogonalEdgeStyle;rounded=0;orthogonalLoop=1;jettySize=auto;html=1;" edge="1" parent="1" source="xelp54pi4x2RU-3CS8bb-48" target="xelp54pi4x2RU-3CS8bb-50">
          <mxGeometry relative="1" as="geometry">
            <mxPoint x="441.70000000000005" y="5220" as="targetPoint" />
          </mxGeometry>
        </mxCell>
        <mxCell id="xelp54pi4x2RU-3CS8bb-48" value="&lt;div style=&quot;font-family: Consolas, &amp;quot;Courier New&amp;quot;, monospace; font-size: 14px; line-height: 19px; white-space: pre;&quot;&gt;&lt;font color=&quot;#0a0a0a&quot;&gt;adultoeuroexe&amp;lt;2300 * numadultos&lt;/font&gt;&lt;/div&gt;" style="rounded=1;whiteSpace=wrap;html=1;absoluteArcSize=1;arcSize=14;strokeWidth=2;" vertex="1" parent="1">
          <mxGeometry x="311" y="5020" width="261.4" height="100" as="geometry" />
        </mxCell>
        <mxCell id="xelp54pi4x2RU-3CS8bb-50" value="&lt;div style=&quot;font-family: Consolas, &amp;quot;Courier New&amp;quot;, monospace; font-size: 14px; line-height: 19px; white-space: pre;&quot;&gt;&lt;font color=&quot;#0a0a0a&quot;&gt;tteuroexe&amp;lt;criancaeuroexe + adultoeuroexe&lt;/font&gt;&lt;/div&gt;" style="rounded=1;whiteSpace=wrap;html=1;absoluteArcSize=1;arcSize=14;strokeWidth=2;" vertex="1" parent="1">
          <mxGeometry x="280.90999999999997" y="5180" width="321.7" height="100" as="geometry" />
        </mxCell>
        <mxCell id="xelp54pi4x2RU-3CS8bb-52" style="edgeStyle=orthogonalEdgeStyle;rounded=0;orthogonalLoop=1;jettySize=auto;html=1;entryX=0.5;entryY=0;entryDx=0;entryDy=0;entryPerimeter=0;" edge="1" parent="1" source="xelp54pi4x2RU-3CS8bb-50" target="jphlP0V6z0yelU0hMr-J-14">
          <mxGeometry relative="1" as="geometry" />
        </mxCell>
        <mxCell id="xelp54pi4x2RU-3CS8bb-55" value="não" style="text;html=1;align=center;verticalAlign=middle;whiteSpace=wrap;rounded=0;" vertex="1" parent="1">
          <mxGeometry x="370" y="5619" width="64.31" height="30" as="geometry" />
        </mxCell>
        <mxCell id="xelp54pi4x2RU-3CS8bb-58" style="edgeStyle=orthogonalEdgeStyle;rounded=0;orthogonalLoop=1;jettySize=auto;html=1;" edge="1" parent="1" source="xelp54pi4x2RU-3CS8bb-57" target="xelp54pi4x2RU-3CS8bb-59">
          <mxGeometry relative="1" as="geometry">
            <mxPoint x="699.3200000000002" y="6060" as="targetPoint" />
          </mxGeometry>
        </mxCell>
        <mxCell id="xelp54pi4x2RU-3CS8bb-57" value="&lt;div style=&quot;font-family: Consolas, &amp;quot;Courier New&amp;quot;, monospace; font-size: 14px; line-height: 19px; white-space: pre;&quot;&gt;&lt;font color=&quot;#0a0a0a&quot;&gt;(&quot;Região de destino:&quot;, destino)&lt;/font&gt;&lt;/div&gt;" style="strokeWidth=2;html=1;shape=mxgraph.flowchart.display;whiteSpace=wrap;" vertex="1" parent="1">
          <mxGeometry x="481.37" y="5850" width="248.96" height="70" as="geometry" />
        </mxCell>
        <mxCell id="xelp54pi4x2RU-3CS8bb-60" style="edgeStyle=orthogonalEdgeStyle;rounded=0;orthogonalLoop=1;jettySize=auto;html=1;" edge="1" parent="1" source="xelp54pi4x2RU-3CS8bb-59" target="xelp54pi4x2RU-3CS8bb-61">
          <mxGeometry relative="1" as="geometry">
            <mxPoint x="614.48" y="6230" as="targetPoint" />
          </mxGeometry>
        </mxCell>
        <mxCell id="xelp54pi4x2RU-3CS8bb-59" value="&lt;div style=&quot;font-family: Consolas, &amp;quot;Courier New&amp;quot;, monospace; font-size: 14px; line-height: 19px; white-space: pre;&quot;&gt;&lt;font color=&quot;#0a0a0a&quot;&gt;(&quot;Número de passagens criança:&quot;, numcriancas)&lt;/font&gt;&lt;/div&gt;" style="strokeWidth=2;html=1;shape=mxgraph.flowchart.display;whiteSpace=wrap;" vertex="1" parent="1">
          <mxGeometry x="420.93" y="5950" width="371.38" height="100" as="geometry" />
        </mxCell>
        <mxCell id="xelp54pi4x2RU-3CS8bb-62" style="edgeStyle=orthogonalEdgeStyle;rounded=0;orthogonalLoop=1;jettySize=auto;html=1;" edge="1" parent="1" source="xelp54pi4x2RU-3CS8bb-61" target="xelp54pi4x2RU-3CS8bb-63">
          <mxGeometry relative="1" as="geometry">
            <mxPoint x="614.4749999999997" y="6370" as="targetPoint" />
          </mxGeometry>
        </mxCell>
        <mxCell id="xelp54pi4x2RU-3CS8bb-61" value="&lt;div style=&quot;font-family: Consolas, &amp;quot;Courier New&amp;quot;, monospace; font-size: 14px; line-height: 19px; white-space: pre;&quot;&gt;&lt;font color=&quot;#0a0a0a&quot;&gt;(&quot;Número de passagens adulto:&quot;, numadultos)&lt;/font&gt;&lt;/div&gt;" style="strokeWidth=2;html=1;shape=mxgraph.flowchart.display;whiteSpace=wrap;" vertex="1" parent="1">
          <mxGeometry x="430.37" y="6100" width="350.95" height="90" as="geometry" />
        </mxCell>
        <mxCell id="xelp54pi4x2RU-3CS8bb-65" style="edgeStyle=orthogonalEdgeStyle;rounded=0;orthogonalLoop=1;jettySize=auto;html=1;" edge="1" parent="1" source="xelp54pi4x2RU-3CS8bb-63" target="xelp54pi4x2RU-3CS8bb-66">
          <mxGeometry relative="1" as="geometry">
            <mxPoint x="614.4750000000001" y="6530" as="targetPoint" />
          </mxGeometry>
        </mxCell>
        <mxCell id="xelp54pi4x2RU-3CS8bb-63" value="&lt;div style=&quot;font-family: Consolas, &amp;quot;Courier New&amp;quot;, monospace; font-size: 14px; line-height: 19px; white-space: pre;&quot;&gt;&lt;font color=&quot;#0a0a0a&quot;&gt;(&quot;Número de passageiros:&quot;, passageiros)&lt;/font&gt;&lt;/div&gt;" style="strokeWidth=2;html=1;shape=mxgraph.flowchart.display;whiteSpace=wrap;" vertex="1" parent="1">
          <mxGeometry x="458.61" y="6230" width="294.47" height="100" as="geometry" />
        </mxCell>
        <mxCell id="xelp54pi4x2RU-3CS8bb-67" style="edgeStyle=orthogonalEdgeStyle;rounded=0;orthogonalLoop=1;jettySize=auto;html=1;" edge="1" parent="1" source="xelp54pi4x2RU-3CS8bb-66" target="xelp54pi4x2RU-3CS8bb-68">
          <mxGeometry relative="1" as="geometry">
            <mxPoint x="614.48" y="6679.999999999999" as="targetPoint" />
          </mxGeometry>
        </mxCell>
        <mxCell id="xelp54pi4x2RU-3CS8bb-75" style="edgeStyle=orthogonalEdgeStyle;rounded=0;orthogonalLoop=1;jettySize=auto;html=1;" edge="1" parent="1" source="xelp54pi4x2RU-3CS8bb-66" target="xelp54pi4x2RU-3CS8bb-76">
          <mxGeometry relative="1" as="geometry">
            <mxPoint x="300" y="6440" as="targetPoint" />
          </mxGeometry>
        </mxCell>
        <mxCell id="xelp54pi4x2RU-3CS8bb-66" value="classe===&quot;economica&quot;" style="strokeWidth=2;html=1;shape=mxgraph.flowchart.decision;whiteSpace=wrap;" vertex="1" parent="1">
          <mxGeometry x="493.61" y="6390" width="224.48" height="100" as="geometry" />
        </mxCell>
        <mxCell id="xelp54pi4x2RU-3CS8bb-69" style="edgeStyle=orthogonalEdgeStyle;rounded=0;orthogonalLoop=1;jettySize=auto;html=1;" edge="1" parent="1" source="xelp54pi4x2RU-3CS8bb-68" target="xelp54pi4x2RU-3CS8bb-70">
          <mxGeometry relative="1" as="geometry">
            <mxPoint x="614.48" y="6710" as="targetPoint" />
          </mxGeometry>
        </mxCell>
        <mxCell id="xelp54pi4x2RU-3CS8bb-68" value="&lt;div style=&quot;font-family: Consolas, &amp;quot;Courier New&amp;quot;, monospace; font-size: 14px; line-height: 19px; white-space: pre;&quot;&gt;&lt;font color=&quot;#0a0a0a&quot;&gt;(&quot;Classe:&quot;, classe)&lt;/font&gt;&lt;/div&gt;" style="strokeWidth=2;html=1;shape=mxgraph.flowchart.display;whiteSpace=wrap;" vertex="1" parent="1">
          <mxGeometry x="495.87" y="6550" width="219.96" height="80" as="geometry" />
        </mxCell>
        <mxCell id="xelp54pi4x2RU-3CS8bb-71" style="edgeStyle=orthogonalEdgeStyle;rounded=0;orthogonalLoop=1;jettySize=auto;html=1;" edge="1" parent="1" source="xelp54pi4x2RU-3CS8bb-70" target="xelp54pi4x2RU-3CS8bb-72">
          <mxGeometry relative="1" as="geometry">
            <mxPoint x="614.4700000000003" y="6870" as="targetPoint" />
          </mxGeometry>
        </mxCell>
        <mxCell id="xelp54pi4x2RU-3CS8bb-70" value="&lt;div style=&quot;font-family: Consolas, &amp;quot;Courier New&amp;quot;, monospace; font-size: 14px; line-height: 19px; white-space: pre;&quot;&gt;&lt;font color=&quot;#0a0a0a&quot;&gt;(&quot;Valor passagem econômica crianças:&quot;, criancanorteeco)&lt;/font&gt;&lt;/div&gt;" style="strokeWidth=2;html=1;shape=mxgraph.flowchart.display;whiteSpace=wrap;" vertex="1" parent="1">
          <mxGeometry x="386.81" y="6680" width="438.09" height="120" as="geometry" />
        </mxCell>
        <mxCell id="xelp54pi4x2RU-3CS8bb-73" style="edgeStyle=orthogonalEdgeStyle;rounded=0;orthogonalLoop=1;jettySize=auto;html=1;" edge="1" parent="1" source="xelp54pi4x2RU-3CS8bb-72" target="xelp54pi4x2RU-3CS8bb-74">
          <mxGeometry relative="1" as="geometry">
            <mxPoint x="614.4749999999999" y="7040" as="targetPoint" />
          </mxGeometry>
        </mxCell>
        <mxCell id="xelp54pi4x2RU-3CS8bb-72" value="&lt;div style=&quot;font-family: Consolas, &amp;quot;Courier New&amp;quot;, monospace; font-size: 14px; line-height: 19px; white-space: pre;&quot;&gt;&lt;font color=&quot;#0a0a0a&quot;&gt;(&quot;Valor passagem econômica adultos:&quot;, adultonorteeco)&lt;/font&gt;&lt;/div&gt;" style="strokeWidth=2;html=1;shape=mxgraph.flowchart.display;whiteSpace=wrap;" vertex="1" parent="1">
          <mxGeometry x="385" y="6860" width="441.71" height="100" as="geometry" />
        </mxCell>
        <mxCell id="xelp54pi4x2RU-3CS8bb-88" style="edgeStyle=orthogonalEdgeStyle;rounded=0;orthogonalLoop=1;jettySize=auto;html=1;entryX=0.993;entryY=0.751;entryDx=0;entryDy=0;entryPerimeter=0;" edge="1" parent="1" source="xelp54pi4x2RU-3CS8bb-74" target="xelp54pi4x2RU-3CS8bb-234">
          <mxGeometry relative="1" as="geometry">
            <mxPoint x="370" y="7270" as="targetPoint" />
            <Array as="points">
              <mxPoint x="607" y="7838" />
            </Array>
          </mxGeometry>
        </mxCell>
        <mxCell id="xelp54pi4x2RU-3CS8bb-74" value="&lt;div style=&quot;font-family: Consolas, &amp;quot;Courier New&amp;quot;, monospace; font-size: 14px; line-height: 19px; white-space: pre;&quot;&gt;&lt;font color=&quot;#0a0a0a&quot;&gt;(&quot;Valor total das passagens:&quot;, ttnorteeco)&lt;/font&gt;&lt;/div&gt;" style="strokeWidth=2;html=1;shape=mxgraph.flowchart.display;whiteSpace=wrap;" vertex="1" parent="1">
          <mxGeometry x="423.62" y="7040" width="364.47" height="90" as="geometry" />
        </mxCell>
        <mxCell id="xelp54pi4x2RU-3CS8bb-77" style="edgeStyle=orthogonalEdgeStyle;rounded=0;orthogonalLoop=1;jettySize=auto;html=1;" edge="1" parent="1" source="xelp54pi4x2RU-3CS8bb-76" target="xelp54pi4x2RU-3CS8bb-78">
          <mxGeometry relative="1" as="geometry">
            <mxPoint x="210" y="6580" as="targetPoint" />
          </mxGeometry>
        </mxCell>
        <mxCell id="xelp54pi4x2RU-3CS8bb-76" value="&lt;span style=&quot;color: rgb(10, 10, 10); font-family: Consolas, &amp;quot;Courier New&amp;quot;, monospace; font-size: 14px; white-space: pre;&quot;&gt;(&quot;Classe:&quot;, classe)&lt;/span&gt;" style="strokeWidth=2;html=1;shape=mxgraph.flowchart.display;whiteSpace=wrap;" vertex="1" parent="1">
          <mxGeometry x="-41.85" y="6395" width="185.37" height="90" as="geometry" />
        </mxCell>
        <mxCell id="xelp54pi4x2RU-3CS8bb-79" style="edgeStyle=orthogonalEdgeStyle;rounded=0;orthogonalLoop=1;jettySize=auto;html=1;" edge="1" parent="1" source="xelp54pi4x2RU-3CS8bb-78" target="xelp54pi4x2RU-3CS8bb-80">
          <mxGeometry relative="1" as="geometry">
            <mxPoint x="50.82999999999993" y="6780" as="targetPoint" />
          </mxGeometry>
        </mxCell>
        <mxCell id="xelp54pi4x2RU-3CS8bb-78" value="&lt;div style=&quot;font-family: Consolas, &amp;quot;Courier New&amp;quot;, monospace; font-size: 14px; line-height: 19px; white-space: pre;&quot;&gt;&lt;font color=&quot;#0a0a0a&quot;&gt;Valor passagem executiva crianças: ${criancanorteexe&lt;/font&gt;&lt;/div&gt;" style="strokeWidth=2;html=1;shape=mxgraph.flowchart.display;whiteSpace=wrap;" vertex="1" parent="1">
          <mxGeometry x="-169.17000000000002" y="6610" width="440" height="90" as="geometry" />
        </mxCell>
        <mxCell id="xelp54pi4x2RU-3CS8bb-81" style="edgeStyle=orthogonalEdgeStyle;rounded=0;orthogonalLoop=1;jettySize=auto;html=1;" edge="1" parent="1" source="xelp54pi4x2RU-3CS8bb-80" target="xelp54pi4x2RU-3CS8bb-82">
          <mxGeometry relative="1" as="geometry">
            <mxPoint x="51.15000000000009" y="6970" as="targetPoint" />
          </mxGeometry>
        </mxCell>
        <mxCell id="xelp54pi4x2RU-3CS8bb-80" value="&lt;div style=&quot;font-family: Consolas, &amp;quot;Courier New&amp;quot;, monospace; font-size: 14px; line-height: 19px; white-space: pre;&quot;&gt;&lt;font color=&quot;#0a0e0f&quot;&gt;Valor passagem executiva adultos: ${adultonorteexe&lt;/font&gt;&lt;/div&gt;" style="strokeWidth=2;html=1;shape=mxgraph.flowchart.display;whiteSpace=wrap;" vertex="1" parent="1">
          <mxGeometry x="-178.85" y="6750" width="460" height="110" as="geometry" />
        </mxCell>
        <mxCell id="xelp54pi4x2RU-3CS8bb-82" value="&lt;div style=&quot;font-family: Consolas, &amp;quot;Courier New&amp;quot;, monospace; font-size: 14px; line-height: 19px; white-space: pre;&quot;&gt;&lt;font color=&quot;#0a0e0f&quot;&gt;(&quot;Valor total das passagens:&quot;, ttnorteexe)&lt;/font&gt;&lt;/div&gt;" style="strokeWidth=2;html=1;shape=mxgraph.flowchart.display;whiteSpace=wrap;" vertex="1" parent="1">
          <mxGeometry x="-142.54" y="6940" width="386.73" height="100" as="geometry" />
        </mxCell>
        <mxCell id="xelp54pi4x2RU-3CS8bb-86" style="edgeStyle=orthogonalEdgeStyle;rounded=0;orthogonalLoop=1;jettySize=auto;html=1;entryX=0.89;entryY=0.89;entryDx=0;entryDy=0;entryPerimeter=0;" edge="1" parent="1" source="xelp54pi4x2RU-3CS8bb-82" target="xelp54pi4x2RU-3CS8bb-234">
          <mxGeometry relative="1" as="geometry">
            <mxPoint x="-10" y="7830" as="targetPoint" />
            <Array as="points">
              <mxPoint x="51" y="7435" />
              <mxPoint x="-100" y="7435" />
              <mxPoint x="-100" y="7830" />
              <mxPoint x="-2220" y="7830" />
            </Array>
          </mxGeometry>
        </mxCell>
        <mxCell id="xelp54pi4x2RU-3CS8bb-89" value="&lt;span style=&quot;color: rgb(10, 10, 10); font-family: Consolas, &amp;quot;Courier New&amp;quot;, monospace; font-size: 14px; white-space: pre;&quot;&gt;(&quot;Região de destino:&quot;, destino)&lt;/span&gt;" style="strokeWidth=2;html=1;shape=mxgraph.flowchart.display;whiteSpace=wrap;" vertex="1" parent="1">
          <mxGeometry x="-693" y="5606.75" width="280" height="89" as="geometry" />
        </mxCell>
        <mxCell id="xelp54pi4x2RU-3CS8bb-92" style="edgeStyle=orthogonalEdgeStyle;rounded=0;orthogonalLoop=1;jettySize=auto;html=1;entryX=0.5;entryY=0;entryDx=0;entryDy=0;entryPerimeter=0;" edge="1" parent="1" source="xelp54pi4x2RU-3CS8bb-90" target="xelp54pi4x2RU-3CS8bb-93">
          <mxGeometry relative="1" as="geometry">
            <mxPoint x="-160" y="5990" as="targetPoint" />
          </mxGeometry>
        </mxCell>
        <mxCell id="xelp54pi4x2RU-3CS8bb-90" value="&lt;div style=&quot;font-family: Consolas, &amp;quot;Courier New&amp;quot;, monospace; font-size: 14px; line-height: 19px; white-space: pre;&quot;&gt;&lt;font color=&quot;#0a0a0a&quot;&gt;(&quot;Número de passagens criança:&quot;, numcriancas)&lt;/font&gt;&lt;/div&gt;" style="strokeWidth=2;html=1;shape=mxgraph.flowchart.display;whiteSpace=wrap;" vertex="1" parent="1">
          <mxGeometry x="-738.69" y="5760" width="371.38" height="100" as="geometry" />
        </mxCell>
        <mxCell id="xelp54pi4x2RU-3CS8bb-91" style="edgeStyle=orthogonalEdgeStyle;rounded=0;orthogonalLoop=1;jettySize=auto;html=1;entryX=0.5;entryY=0;entryDx=0;entryDy=0;entryPerimeter=0;" edge="1" parent="1" source="xelp54pi4x2RU-3CS8bb-89" target="xelp54pi4x2RU-3CS8bb-90">
          <mxGeometry relative="1" as="geometry" />
        </mxCell>
        <mxCell id="xelp54pi4x2RU-3CS8bb-95" style="edgeStyle=orthogonalEdgeStyle;rounded=0;orthogonalLoop=1;jettySize=auto;html=1;" edge="1" parent="1" source="xelp54pi4x2RU-3CS8bb-93" target="xelp54pi4x2RU-3CS8bb-94">
          <mxGeometry relative="1" as="geometry" />
        </mxCell>
        <mxCell id="xelp54pi4x2RU-3CS8bb-93" value="&lt;div style=&quot;font-family: Consolas, &amp;quot;Courier New&amp;quot;, monospace; font-size: 14px; line-height: 19px; white-space: pre;&quot;&gt;&lt;font color=&quot;#0a0a0a&quot;&gt;(&quot;Número de passagens adulto:&quot;, numadultos)&lt;/font&gt;&lt;/div&gt;" style="strokeWidth=2;html=1;shape=mxgraph.flowchart.display;whiteSpace=wrap;" vertex="1" parent="1">
          <mxGeometry x="-728.48" y="5950" width="350.95" height="90" as="geometry" />
        </mxCell>
        <mxCell id="xelp54pi4x2RU-3CS8bb-96" style="edgeStyle=orthogonalEdgeStyle;rounded=0;orthogonalLoop=1;jettySize=auto;html=1;entryX=0.5;entryY=0;entryDx=0;entryDy=0;entryPerimeter=0;" edge="1" parent="1" source="xelp54pi4x2RU-3CS8bb-94" target="xelp54pi4x2RU-3CS8bb-97">
          <mxGeometry relative="1" as="geometry">
            <mxPoint x="-553.0050000000001" y="6300" as="targetPoint" />
          </mxGeometry>
        </mxCell>
        <mxCell id="xelp54pi4x2RU-3CS8bb-94" value="&lt;div style=&quot;font-family: Consolas, &amp;quot;Courier New&amp;quot;, monospace; font-size: 14px; line-height: 19px; white-space: pre;&quot;&gt;&lt;font color=&quot;#0a0a0a&quot;&gt;(&quot;Número de passageiros:&quot;, passageiros)&lt;/font&gt;&lt;/div&gt;" style="strokeWidth=2;html=1;shape=mxgraph.flowchart.display;whiteSpace=wrap;" vertex="1" parent="1">
          <mxGeometry x="-700.24" y="6130" width="294.47" height="100" as="geometry" />
        </mxCell>
        <mxCell id="xelp54pi4x2RU-3CS8bb-98" style="edgeStyle=orthogonalEdgeStyle;rounded=0;orthogonalLoop=1;jettySize=auto;html=1;" edge="1" parent="1" source="xelp54pi4x2RU-3CS8bb-97" target="xelp54pi4x2RU-3CS8bb-99">
          <mxGeometry relative="1" as="geometry">
            <mxPoint x="-920" y="6385" as="targetPoint" />
          </mxGeometry>
        </mxCell>
        <mxCell id="xelp54pi4x2RU-3CS8bb-100" style="edgeStyle=orthogonalEdgeStyle;rounded=0;orthogonalLoop=1;jettySize=auto;html=1;" edge="1" parent="1" source="xelp54pi4x2RU-3CS8bb-97" target="xelp54pi4x2RU-3CS8bb-101">
          <mxGeometry relative="1" as="geometry">
            <mxPoint x="-553" y="6550" as="targetPoint" />
          </mxGeometry>
        </mxCell>
        <mxCell id="xelp54pi4x2RU-3CS8bb-97" value="classe===&quot;economica&quot;" style="strokeWidth=2;html=1;shape=mxgraph.flowchart.decision;whiteSpace=wrap;" vertex="1" parent="1">
          <mxGeometry x="-682.62" y="6330" width="259.24" height="110" as="geometry" />
        </mxCell>
        <mxCell id="xelp54pi4x2RU-3CS8bb-111" style="edgeStyle=orthogonalEdgeStyle;rounded=0;orthogonalLoop=1;jettySize=auto;html=1;" edge="1" parent="1" source="xelp54pi4x2RU-3CS8bb-99" target="xelp54pi4x2RU-3CS8bb-112">
          <mxGeometry relative="1" as="geometry">
            <mxPoint x="-1110" y="6530" as="targetPoint" />
          </mxGeometry>
        </mxCell>
        <mxCell id="xelp54pi4x2RU-3CS8bb-99" value="&lt;span style=&quot;color: rgb(10, 10, 10); font-family: Consolas, &amp;quot;Courier New&amp;quot;, monospace; font-size: 14px; white-space: pre;&quot;&gt;(&quot;Classe:&quot;, classe)&lt;/span&gt;" style="strokeWidth=2;html=1;shape=mxgraph.flowchart.display;whiteSpace=wrap;" vertex="1" parent="1">
          <mxGeometry x="-1210" y="6336.25" width="203" height="97.5" as="geometry" />
        </mxCell>
        <mxCell id="xelp54pi4x2RU-3CS8bb-104" style="edgeStyle=orthogonalEdgeStyle;rounded=0;orthogonalLoop=1;jettySize=auto;html=1;" edge="1" parent="1" source="xelp54pi4x2RU-3CS8bb-101" target="xelp54pi4x2RU-3CS8bb-105">
          <mxGeometry relative="1" as="geometry">
            <mxPoint x="-553" y="6690" as="targetPoint" />
          </mxGeometry>
        </mxCell>
        <mxCell id="xelp54pi4x2RU-3CS8bb-101" value="&lt;span style=&quot;color: rgb(10, 10, 10); font-family: Consolas, &amp;quot;Courier New&amp;quot;, monospace; font-size: 14px; white-space: pre;&quot;&gt;(&quot;Classe:&quot;, classe)&lt;/span&gt;" style="strokeWidth=2;html=1;shape=mxgraph.flowchart.display;whiteSpace=wrap;" vertex="1" parent="1">
          <mxGeometry x="-658.25" y="6520" width="210.5" height="100" as="geometry" />
        </mxCell>
        <mxCell id="xelp54pi4x2RU-3CS8bb-102" value="sim" style="text;html=1;align=center;verticalAlign=middle;whiteSpace=wrap;rounded=0;rotation=90;" vertex="1" parent="1">
          <mxGeometry x="-560" y="6455" width="60" height="30" as="geometry" />
        </mxCell>
        <mxCell id="xelp54pi4x2RU-3CS8bb-103" value="não" style="text;html=1;align=center;verticalAlign=middle;whiteSpace=wrap;rounded=0;" vertex="1" parent="1">
          <mxGeometry x="-770" y="6350" width="60" height="30" as="geometry" />
        </mxCell>
        <mxCell id="xelp54pi4x2RU-3CS8bb-106" style="edgeStyle=orthogonalEdgeStyle;rounded=0;orthogonalLoop=1;jettySize=auto;html=1;" edge="1" parent="1" source="xelp54pi4x2RU-3CS8bb-105" target="xelp54pi4x2RU-3CS8bb-107">
          <mxGeometry relative="1" as="geometry">
            <mxPoint x="-553" y="6920" as="targetPoint" />
          </mxGeometry>
        </mxCell>
        <mxCell id="xelp54pi4x2RU-3CS8bb-105" value="&lt;div style=&quot;font-family: Consolas, &amp;quot;Courier New&amp;quot;, monospace; font-size: 14px; line-height: 19px; white-space: pre;&quot;&gt;&lt;font color=&quot;#0a0e0f&quot;&gt;(&quot;Valor passagem econômica crianças:&quot;, criancasuleco)&lt;/font&gt;&lt;/div&gt;" style="strokeWidth=2;html=1;shape=mxgraph.flowchart.display;whiteSpace=wrap;" vertex="1" parent="1">
          <mxGeometry x="-773.24" y="6680" width="440.5" height="100" as="geometry" />
        </mxCell>
        <mxCell id="xelp54pi4x2RU-3CS8bb-108" style="edgeStyle=orthogonalEdgeStyle;rounded=0;orthogonalLoop=1;jettySize=auto;html=1;" edge="1" parent="1" source="xelp54pi4x2RU-3CS8bb-107" target="xelp54pi4x2RU-3CS8bb-109">
          <mxGeometry relative="1" as="geometry">
            <mxPoint x="-553.0050000000001" y="7040" as="targetPoint" />
          </mxGeometry>
        </mxCell>
        <mxCell id="xelp54pi4x2RU-3CS8bb-107" value="&lt;div style=&quot;font-family: Consolas, &amp;quot;Courier New&amp;quot;, monospace; font-size: 14px; line-height: 19px; white-space: pre;&quot;&gt;&lt;font color=&quot;#0a0e0f&quot;&gt;(&quot;Valor passagem econômica adultos:&quot;, adultosuleco&quot;)&lt;/font&gt;&lt;/div&gt;" style="strokeWidth=2;html=1;shape=mxgraph.flowchart.display;whiteSpace=wrap;" vertex="1" parent="1">
          <mxGeometry x="-771.63" y="6850" width="437.25" height="100" as="geometry" />
        </mxCell>
        <mxCell id="xelp54pi4x2RU-3CS8bb-119" value="&lt;div&gt;&lt;br&gt;&lt;/div&gt;&lt;div&gt;&lt;br&gt;&lt;/div&gt;&lt;div&gt;&lt;br&gt;&lt;/div&gt;&lt;div&gt;&lt;br&gt;&lt;/div&gt;&lt;div&gt;&lt;br&gt;&lt;/div&gt;&lt;div&gt;&lt;br&gt;&lt;/div&gt;&lt;div&gt;&lt;br&gt;&lt;/div&gt;&lt;div&gt;&lt;br&gt;&lt;/div&gt;&lt;div&gt;&lt;br&gt;&lt;/div&gt;&lt;div&gt;&lt;br&gt;&lt;/div&gt;&lt;div&gt;&lt;br&gt;&lt;/div&gt;&lt;div&gt;&lt;br&gt;&lt;/div&gt;&lt;div&gt;&lt;br&gt;&lt;/div&gt;&lt;div&gt;&lt;br&gt;&lt;/div&gt;&lt;div&gt;&lt;br&gt;&lt;/div&gt;&lt;div&gt;&lt;br&gt;&lt;/div&gt;&lt;div&gt;&lt;br&gt;&lt;/div&gt;&lt;div&gt;&lt;br&gt;&lt;/div&gt;&lt;div&gt;&lt;br&gt;&lt;/div&gt;&lt;div&gt;&lt;br&gt;&lt;/div&gt;&lt;div&gt;&lt;br&gt;&lt;/div&gt;&lt;div&gt;&lt;br&gt;&lt;/div&gt;&lt;div&gt;&lt;br&gt;&lt;/div&gt;&lt;div&gt;&lt;br&gt;&lt;/div&gt;&lt;div&gt;&lt;br&gt;&lt;/div&gt;&lt;div&gt;&lt;br&gt;&lt;/div&gt;&lt;div&gt;&lt;br&gt;&lt;/div&gt;&lt;div&gt;&lt;br&gt;&lt;/div&gt;" style="edgeStyle=orthogonalEdgeStyle;rounded=0;orthogonalLoop=1;jettySize=auto;html=1;entryX=1;entryY=0.5;entryDx=0;entryDy=0;entryPerimeter=0;" edge="1" parent="1" source="xelp54pi4x2RU-3CS8bb-109" target="xelp54pi4x2RU-3CS8bb-234">
          <mxGeometry relative="1" as="geometry">
            <mxPoint x="-1057.62" y="7172" as="targetPoint" />
            <Array as="points">
              <mxPoint x="-552" y="7455" />
            </Array>
          </mxGeometry>
        </mxCell>
        <mxCell id="xelp54pi4x2RU-3CS8bb-109" value="&lt;div style=&quot;font-family: Consolas, &amp;quot;Courier New&amp;quot;, monospace; font-size: 14px; line-height: 19px; white-space: pre;&quot;&gt;&lt;font color=&quot;#0a0e0f&quot;&gt;(&quot;Valor total das passagens:&quot;, ttecosul)&lt;/font&gt;&lt;/div&gt;" style="strokeWidth=2;html=1;shape=mxgraph.flowchart.display;whiteSpace=wrap;" vertex="1" parent="1">
          <mxGeometry x="-740.76" y="7030" width="375.51" height="94" as="geometry" />
        </mxCell>
        <mxCell id="xelp54pi4x2RU-3CS8bb-113" style="edgeStyle=orthogonalEdgeStyle;rounded=0;orthogonalLoop=1;jettySize=auto;html=1;" edge="1" parent="1" source="xelp54pi4x2RU-3CS8bb-112" target="xelp54pi4x2RU-3CS8bb-114">
          <mxGeometry relative="1" as="geometry">
            <mxPoint x="-1107.625" y="6680" as="targetPoint" />
          </mxGeometry>
        </mxCell>
        <mxCell id="xelp54pi4x2RU-3CS8bb-112" value="&lt;div style=&quot;font-family: Consolas, &amp;quot;Courier New&amp;quot;, monospace; font-size: 14px; line-height: 19px; white-space: pre;&quot;&gt;&lt;font color=&quot;#0a0e0f&quot;&gt;(&quot;Valor passagem executiva crianças:&quot;, criancasulexe)&lt;/font&gt;&lt;/div&gt;" style="strokeWidth=2;html=1;shape=mxgraph.flowchart.display;whiteSpace=wrap;" vertex="1" parent="1">
          <mxGeometry x="-1340" y="6500" width="464.75" height="100" as="geometry" />
        </mxCell>
        <mxCell id="xelp54pi4x2RU-3CS8bb-115" style="edgeStyle=orthogonalEdgeStyle;rounded=0;orthogonalLoop=1;jettySize=auto;html=1;" edge="1" parent="1" source="xelp54pi4x2RU-3CS8bb-114" target="xelp54pi4x2RU-3CS8bb-116">
          <mxGeometry relative="1" as="geometry">
            <mxPoint x="-1107.625" y="6850" as="targetPoint" />
          </mxGeometry>
        </mxCell>
        <mxCell id="xelp54pi4x2RU-3CS8bb-114" value="&lt;div style=&quot;font-family: Consolas, &amp;quot;Courier New&amp;quot;, monospace; font-size: 14px; line-height: 19px; white-space: pre;&quot;&gt;&lt;font color=&quot;#0a0e0f&quot;&gt;(&quot;Valor passagem executiva adultos:&quot;, adultosulexe)&lt;/font&gt;&lt;/div&gt;" style="strokeWidth=2;html=1;shape=mxgraph.flowchart.display;whiteSpace=wrap;" vertex="1" parent="1">
          <mxGeometry x="-1311.91" y="6660" width="408.57" height="120" as="geometry" />
        </mxCell>
        <mxCell id="xelp54pi4x2RU-3CS8bb-117" style="edgeStyle=orthogonalEdgeStyle;rounded=0;orthogonalLoop=1;jettySize=auto;html=1;" edge="1" parent="1" source="xelp54pi4x2RU-3CS8bb-116" target="xelp54pi4x2RU-3CS8bb-234">
          <mxGeometry relative="1" as="geometry">
            <mxPoint x="-1108" y="7400" as="targetPoint" />
            <Array as="points">
              <mxPoint x="-1107" y="7183" />
              <mxPoint x="-1150" y="7183" />
              <mxPoint x="-1150" y="7400" />
            </Array>
          </mxGeometry>
        </mxCell>
        <mxCell id="xelp54pi4x2RU-3CS8bb-116" value="&lt;div style=&quot;font-family: Consolas, &amp;quot;Courier New&amp;quot;, monospace; font-size: 14px; line-height: 19px; white-space: pre;&quot;&gt;&lt;font color=&quot;#0a0e0f&quot;&gt;(&quot;Valor total das passagens:&quot;, ttexesul)&lt;/font&gt;&lt;/div&gt;" style="strokeWidth=2;html=1;shape=mxgraph.flowchart.display;whiteSpace=wrap;" vertex="1" parent="1">
          <mxGeometry x="-1268.81" y="6855" width="322.38" height="110" as="geometry" />
        </mxCell>
        <mxCell id="xelp54pi4x2RU-3CS8bb-123" style="edgeStyle=orthogonalEdgeStyle;rounded=0;orthogonalLoop=1;jettySize=auto;html=1;entryX=0.5;entryY=0;entryDx=0;entryDy=0;entryPerimeter=0;" edge="1" parent="1" source="xelp54pi4x2RU-3CS8bb-121" target="xelp54pi4x2RU-3CS8bb-124">
          <mxGeometry relative="1" as="geometry">
            <mxPoint x="-1620" y="5530" as="targetPoint" />
          </mxGeometry>
        </mxCell>
        <mxCell id="xelp54pi4x2RU-3CS8bb-159" style="edgeStyle=orthogonalEdgeStyle;rounded=0;orthogonalLoop=1;jettySize=auto;html=1;" edge="1" parent="1" source="xelp54pi4x2RU-3CS8bb-121" target="xelp54pi4x2RU-3CS8bb-162">
          <mxGeometry relative="1" as="geometry">
            <mxPoint x="-2190" y="5386.25" as="targetPoint" />
          </mxGeometry>
        </mxCell>
        <mxCell id="xelp54pi4x2RU-3CS8bb-121" value="destino===&quot;asia&quot;" style="strokeWidth=2;html=1;shape=mxgraph.flowchart.decision;whiteSpace=wrap;" vertex="1" parent="1">
          <mxGeometry x="-1750" y="5324.25" width="260" height="124" as="geometry" />
        </mxCell>
        <mxCell id="xelp54pi4x2RU-3CS8bb-126" style="edgeStyle=orthogonalEdgeStyle;rounded=0;orthogonalLoop=1;jettySize=auto;html=1;" edge="1" parent="1" source="xelp54pi4x2RU-3CS8bb-124" target="xelp54pi4x2RU-3CS8bb-125">
          <mxGeometry relative="1" as="geometry" />
        </mxCell>
        <mxCell id="xelp54pi4x2RU-3CS8bb-124" value="&lt;span style=&quot;color: rgb(10, 10, 10); font-family: Consolas, &amp;quot;Courier New&amp;quot;, monospace; font-size: 14px; white-space: pre;&quot;&gt;(&quot;Região de destino:&quot;, destino)&lt;/span&gt;" style="strokeWidth=2;html=1;shape=mxgraph.flowchart.display;whiteSpace=wrap;" vertex="1" parent="1">
          <mxGeometry x="-1760" y="5560" width="280" height="89" as="geometry" />
        </mxCell>
        <mxCell id="xelp54pi4x2RU-3CS8bb-125" value="&lt;div style=&quot;font-family: Consolas, &amp;quot;Courier New&amp;quot;, monospace; font-size: 14px; line-height: 19px; white-space: pre;&quot;&gt;&lt;font color=&quot;#0a0a0a&quot;&gt;(&quot;Número de passagens criança:&quot;, numcriancas)&lt;/font&gt;&lt;/div&gt;" style="strokeWidth=2;html=1;shape=mxgraph.flowchart.display;whiteSpace=wrap;" vertex="1" parent="1">
          <mxGeometry x="-1805.69" y="5740" width="371.38" height="100" as="geometry" />
        </mxCell>
        <mxCell id="xelp54pi4x2RU-3CS8bb-129" style="edgeStyle=orthogonalEdgeStyle;rounded=0;orthogonalLoop=1;jettySize=auto;html=1;entryX=0.5;entryY=0;entryDx=0;entryDy=0;entryPerimeter=0;" edge="1" parent="1" source="xelp54pi4x2RU-3CS8bb-127" target="xelp54pi4x2RU-3CS8bb-130">
          <mxGeometry relative="1" as="geometry">
            <mxPoint x="-1620.005" y="6090" as="targetPoint" />
          </mxGeometry>
        </mxCell>
        <mxCell id="xelp54pi4x2RU-3CS8bb-127" value="&lt;div style=&quot;font-family: Consolas, &amp;quot;Courier New&amp;quot;, monospace; font-size: 14px; line-height: 19px; white-space: pre;&quot;&gt;&lt;font color=&quot;#0a0a0a&quot;&gt;(&quot;Número de passagens adulto:&quot;, numadultos)&lt;/font&gt;&lt;/div&gt;" style="strokeWidth=2;html=1;shape=mxgraph.flowchart.display;whiteSpace=wrap;" vertex="1" parent="1">
          <mxGeometry x="-1795.48" y="5920" width="350.95" height="90" as="geometry" />
        </mxCell>
        <mxCell id="xelp54pi4x2RU-3CS8bb-128" style="edgeStyle=orthogonalEdgeStyle;rounded=0;orthogonalLoop=1;jettySize=auto;html=1;entryX=0.5;entryY=0;entryDx=0;entryDy=0;entryPerimeter=0;" edge="1" parent="1" source="xelp54pi4x2RU-3CS8bb-125" target="xelp54pi4x2RU-3CS8bb-127">
          <mxGeometry relative="1" as="geometry" />
        </mxCell>
        <mxCell id="xelp54pi4x2RU-3CS8bb-130" value="&lt;div style=&quot;font-family: Consolas, &amp;quot;Courier New&amp;quot;, monospace; font-size: 14px; line-height: 19px; white-space: pre;&quot;&gt;&lt;font color=&quot;#0a0a0a&quot;&gt;(&quot;Número de passageiros:&quot;, passageiros)&lt;/font&gt;&lt;/div&gt;" style="strokeWidth=2;html=1;shape=mxgraph.flowchart.display;whiteSpace=wrap;" vertex="1" parent="1">
          <mxGeometry x="-1767.24" y="6100" width="294.47" height="100" as="geometry" />
        </mxCell>
        <mxCell id="xelp54pi4x2RU-3CS8bb-134" style="edgeStyle=orthogonalEdgeStyle;rounded=0;orthogonalLoop=1;jettySize=auto;html=1;entryX=0.5;entryY=0;entryDx=0;entryDy=0;entryPerimeter=0;" edge="1" parent="1" source="xelp54pi4x2RU-3CS8bb-132" target="xelp54pi4x2RU-3CS8bb-135">
          <mxGeometry relative="1" as="geometry">
            <mxPoint x="-1609.62" y="6510" as="targetPoint" />
          </mxGeometry>
        </mxCell>
        <mxCell id="xelp54pi4x2RU-3CS8bb-137" style="edgeStyle=orthogonalEdgeStyle;rounded=0;orthogonalLoop=1;jettySize=auto;html=1;" edge="1" parent="1" source="xelp54pi4x2RU-3CS8bb-132" target="xelp54pi4x2RU-3CS8bb-138">
          <mxGeometry relative="1" as="geometry">
            <mxPoint x="-1959.9999999999998" y="6345" as="targetPoint" />
          </mxGeometry>
        </mxCell>
        <mxCell id="xelp54pi4x2RU-3CS8bb-132" value="classe===&quot;economica&quot;" style="strokeWidth=2;html=1;shape=mxgraph.flowchart.decision;whiteSpace=wrap;" vertex="1" parent="1">
          <mxGeometry x="-1739.2399999999998" y="6290" width="259.24" height="110" as="geometry" />
        </mxCell>
        <mxCell id="xelp54pi4x2RU-3CS8bb-133" style="edgeStyle=orthogonalEdgeStyle;rounded=0;orthogonalLoop=1;jettySize=auto;html=1;entryX=0.46;entryY=0.062;entryDx=0;entryDy=0;entryPerimeter=0;" edge="1" parent="1" source="xelp54pi4x2RU-3CS8bb-130" target="xelp54pi4x2RU-3CS8bb-132">
          <mxGeometry relative="1" as="geometry" />
        </mxCell>
        <mxCell id="xelp54pi4x2RU-3CS8bb-141" style="edgeStyle=orthogonalEdgeStyle;rounded=0;orthogonalLoop=1;jettySize=auto;html=1;" edge="1" parent="1" source="xelp54pi4x2RU-3CS8bb-135" target="xelp54pi4x2RU-3CS8bb-144">
          <mxGeometry relative="1" as="geometry">
            <mxPoint x="-1609.5714285714284" y="6740" as="targetPoint" />
          </mxGeometry>
        </mxCell>
        <mxCell id="xelp54pi4x2RU-3CS8bb-135" value="&lt;span style=&quot;color: rgb(10, 10, 10); font-family: Consolas, &amp;quot;Courier New&amp;quot;, monospace; font-size: 14px; white-space: pre;&quot;&gt;(&quot;Classe:&quot;, classe)&lt;/span&gt;" style="strokeWidth=2;html=1;shape=mxgraph.flowchart.display;whiteSpace=wrap;" vertex="1" parent="1">
          <mxGeometry x="-1714.87" y="6520" width="210.5" height="100" as="geometry" />
        </mxCell>
        <mxCell id="xelp54pi4x2RU-3CS8bb-149" style="edgeStyle=orthogonalEdgeStyle;rounded=0;orthogonalLoop=1;jettySize=auto;html=1;" edge="1" parent="1" source="xelp54pi4x2RU-3CS8bb-138" target="xelp54pi4x2RU-3CS8bb-150">
          <mxGeometry relative="1" as="geometry">
            <mxPoint x="-2154.75" y="6540" as="targetPoint" />
          </mxGeometry>
        </mxCell>
        <mxCell id="xelp54pi4x2RU-3CS8bb-138" value="&lt;span style=&quot;color: rgb(10, 10, 10); font-family: Consolas, &amp;quot;Courier New&amp;quot;, monospace; font-size: 14px; white-space: pre;&quot;&gt;(&quot;Classe:&quot;, classe)&lt;/span&gt;" style="strokeWidth=2;html=1;shape=mxgraph.flowchart.display;whiteSpace=wrap;" vertex="1" parent="1">
          <mxGeometry x="-2250" y="6300" width="190.5" height="90" as="geometry" />
        </mxCell>
        <mxCell id="xelp54pi4x2RU-3CS8bb-139" value="sim" style="text;html=1;align=center;verticalAlign=middle;whiteSpace=wrap;rounded=0;rotation=90;" vertex="1" parent="1">
          <mxGeometry x="-1610" y="6440" width="60" height="30" as="geometry" />
        </mxCell>
        <mxCell id="xelp54pi4x2RU-3CS8bb-140" value="não" style="text;html=1;align=center;verticalAlign=middle;whiteSpace=wrap;rounded=0;" vertex="1" parent="1">
          <mxGeometry x="-1840" y="6306.25" width="60" height="30" as="geometry" />
        </mxCell>
        <mxCell id="xelp54pi4x2RU-3CS8bb-145" style="edgeStyle=orthogonalEdgeStyle;rounded=0;orthogonalLoop=1;jettySize=auto;html=1;" edge="1" parent="1" source="xelp54pi4x2RU-3CS8bb-144" target="xelp54pi4x2RU-3CS8bb-146">
          <mxGeometry relative="1" as="geometry">
            <mxPoint x="-1609.62" y="6900" as="targetPoint" />
          </mxGeometry>
        </mxCell>
        <mxCell id="xelp54pi4x2RU-3CS8bb-144" value="&lt;span style=&quot;color: rgb(10, 14, 15); font-family: Consolas, &amp;quot;Courier New&amp;quot;, monospace; font-size: 14px; white-space: pre;&quot;&gt;(&quot;Valor passagem econômica crianças:&quot;, criancaasiaeco)&lt;/span&gt;" style="strokeWidth=2;html=1;shape=mxgraph.flowchart.display;whiteSpace=wrap;" vertex="1" parent="1">
          <mxGeometry x="-1829.62" y="6720" width="440" height="100" as="geometry" />
        </mxCell>
        <mxCell id="xelp54pi4x2RU-3CS8bb-147" style="edgeStyle=orthogonalEdgeStyle;rounded=0;orthogonalLoop=1;jettySize=auto;html=1;" edge="1" parent="1" source="xelp54pi4x2RU-3CS8bb-146" target="xelp54pi4x2RU-3CS8bb-148">
          <mxGeometry relative="1" as="geometry">
            <mxPoint x="-1609.6150000000002" y="7130" as="targetPoint" />
          </mxGeometry>
        </mxCell>
        <mxCell id="xelp54pi4x2RU-3CS8bb-146" value="&lt;div style=&quot;font-family: Consolas, &amp;quot;Courier New&amp;quot;, monospace; font-size: 14px; line-height: 19px; white-space: pre;&quot;&gt;&lt;font color=&quot;#0a0a0a&quot;&gt;(&quot;Valor passagem econômica adultos:&quot;, adultosasiaeco)&lt;/font&gt;&lt;/div&gt;" style="strokeWidth=2;html=1;shape=mxgraph.flowchart.display;whiteSpace=wrap;" vertex="1" parent="1">
          <mxGeometry x="-1834.9" y="6904" width="450.57" height="110" as="geometry" />
        </mxCell>
        <mxCell id="xelp54pi4x2RU-3CS8bb-148" value="&lt;div style=&quot;font-family: Consolas, &amp;quot;Courier New&amp;quot;, monospace; font-size: 14px; line-height: 19px; white-space: pre;&quot;&gt;&lt;font color=&quot;#0a0a0a&quot;&gt;(&quot;Valor total das passagens:&quot;, ttasiaeco)&lt;/font&gt;&lt;/div&gt;" style="strokeWidth=2;html=1;shape=mxgraph.flowchart.display;whiteSpace=wrap;" vertex="1" parent="1">
          <mxGeometry x="-1824.81" y="7100" width="430.38" height="100" as="geometry" />
        </mxCell>
        <mxCell id="xelp54pi4x2RU-3CS8bb-151" style="edgeStyle=orthogonalEdgeStyle;rounded=0;orthogonalLoop=1;jettySize=auto;html=1;" edge="1" parent="1" source="xelp54pi4x2RU-3CS8bb-150" target="xelp54pi4x2RU-3CS8bb-152">
          <mxGeometry relative="1" as="geometry">
            <mxPoint x="-2154.755" y="6700" as="targetPoint" />
          </mxGeometry>
        </mxCell>
        <mxCell id="xelp54pi4x2RU-3CS8bb-150" value="&lt;div style=&quot;font-family: Consolas, &amp;quot;Courier New&amp;quot;, monospace; font-size: 14px; line-height: 19px; white-space: pre;&quot;&gt;&lt;font color=&quot;#0a0a0a&quot;&gt;(&quot;Valor passagem executiva crianças:&quot;, criancasasiaexe)&lt;/font&gt;&lt;/div&gt;" style="strokeWidth=2;html=1;shape=mxgraph.flowchart.display;whiteSpace=wrap;" vertex="1" parent="1">
          <mxGeometry x="-2388.69" y="6510" width="467.87" height="100" as="geometry" />
        </mxCell>
        <mxCell id="xelp54pi4x2RU-3CS8bb-153" style="edgeStyle=orthogonalEdgeStyle;rounded=0;orthogonalLoop=1;jettySize=auto;html=1;" edge="1" parent="1" source="xelp54pi4x2RU-3CS8bb-152" target="xelp54pi4x2RU-3CS8bb-154">
          <mxGeometry relative="1" as="geometry">
            <mxPoint x="-2154.755" y="6880" as="targetPoint" />
          </mxGeometry>
        </mxCell>
        <mxCell id="xelp54pi4x2RU-3CS8bb-152" value="&lt;div style=&quot;font-family: Consolas, &amp;quot;Courier New&amp;quot;, monospace; font-size: 14px; line-height: 19px; white-space: pre;&quot;&gt;&lt;font color=&quot;#0a0a0a&quot;&gt;(&quot;Valor passagem executiva adultos:&quot;, adultoasiaexe)&lt;/font&gt;&lt;/div&gt;" style="strokeWidth=2;html=1;shape=mxgraph.flowchart.display;whiteSpace=wrap;" vertex="1" parent="1">
          <mxGeometry x="-2377.38" y="6675" width="445.25" height="90" as="geometry" />
        </mxCell>
        <mxCell id="xelp54pi4x2RU-3CS8bb-154" value="&lt;div style=&quot;font-family: Consolas, &amp;quot;Courier New&amp;quot;, monospace; font-weight: normal; font-size: 14px; line-height: 19px; white-space: pre;&quot;&gt;&lt;div style=&quot;&quot;&gt;&lt;font color=&quot;#0a0a0a&quot;&gt;(&quot;Valor total das passagens:&quot;, ttasiaexe)&lt;/font&gt;&lt;/div&gt;&lt;/div&gt;" style="strokeWidth=2;html=1;shape=mxgraph.flowchart.display;whiteSpace=wrap;" vertex="1" parent="1">
          <mxGeometry x="-2341" y="6850" width="373.69" height="70" as="geometry" />
        </mxCell>
        <mxCell id="xelp54pi4x2RU-3CS8bb-158" value="sim" style="text;html=1;align=center;verticalAlign=middle;whiteSpace=wrap;rounded=0;rotation=90;" vertex="1" parent="1">
          <mxGeometry x="-1620" y="5480" width="60" height="30" as="geometry" />
        </mxCell>
        <mxCell id="xelp54pi4x2RU-3CS8bb-160" value="não" style="text;html=1;align=center;verticalAlign=middle;whiteSpace=wrap;rounded=0;" vertex="1" parent="1">
          <mxGeometry x="-1950" y="5350" width="60" height="30" as="geometry" />
        </mxCell>
        <mxCell id="xelp54pi4x2RU-3CS8bb-163" style="edgeStyle=orthogonalEdgeStyle;rounded=0;orthogonalLoop=1;jettySize=auto;html=1;" edge="1" parent="1" source="xelp54pi4x2RU-3CS8bb-162">
          <mxGeometry relative="1" as="geometry">
            <mxPoint x="-2205" y="5530" as="targetPoint" />
          </mxGeometry>
        </mxCell>
        <mxCell id="xelp54pi4x2RU-3CS8bb-197" style="edgeStyle=orthogonalEdgeStyle;rounded=0;orthogonalLoop=1;jettySize=auto;html=1;entryX=1;entryY=0.5;entryDx=0;entryDy=0;entryPerimeter=0;" edge="1" parent="1" source="xelp54pi4x2RU-3CS8bb-162" target="xelp54pi4x2RU-3CS8bb-203">
          <mxGeometry relative="1" as="geometry">
            <mxPoint x="-2603.1600000000003" y="5386.249999999999" as="targetPoint" />
          </mxGeometry>
        </mxCell>
        <mxCell id="xelp54pi4x2RU-3CS8bb-162" value="destino===&quot;africa&quot;" style="strokeWidth=2;html=1;shape=mxgraph.flowchart.decision;whiteSpace=wrap;" vertex="1" parent="1">
          <mxGeometry x="-2330" y="5334.38" width="250" height="103.75" as="geometry" />
        </mxCell>
        <mxCell id="xelp54pi4x2RU-3CS8bb-164" value="&lt;span style=&quot;color: rgb(10, 10, 10); font-family: Consolas, &amp;quot;Courier New&amp;quot;, monospace; font-size: 14px; white-space: pre;&quot;&gt;(&quot;Região de destino:&quot;, destino)&lt;/span&gt;" style="strokeWidth=2;html=1;shape=mxgraph.flowchart.display;whiteSpace=wrap;" vertex="1" parent="1">
          <mxGeometry x="-2348" y="5530" width="280" height="89" as="geometry" />
        </mxCell>
        <mxCell id="xelp54pi4x2RU-3CS8bb-165" value="&lt;div style=&quot;font-family: Consolas, &amp;quot;Courier New&amp;quot;, monospace; font-size: 14px; line-height: 19px; white-space: pre;&quot;&gt;&lt;font color=&quot;#0a0a0a&quot;&gt;(&quot;Número de passagens criança:&quot;, numcriancas)&lt;/font&gt;&lt;/div&gt;" style="strokeWidth=2;html=1;shape=mxgraph.flowchart.display;whiteSpace=wrap;" vertex="1" parent="1">
          <mxGeometry x="-2393.69" y="5720" width="371.38" height="100" as="geometry" />
        </mxCell>
        <mxCell id="xelp54pi4x2RU-3CS8bb-166" style="edgeStyle=orthogonalEdgeStyle;rounded=0;orthogonalLoop=1;jettySize=auto;html=1;entryX=0.5;entryY=0;entryDx=0;entryDy=0;entryPerimeter=0;" edge="1" parent="1" source="xelp54pi4x2RU-3CS8bb-164" target="xelp54pi4x2RU-3CS8bb-165">
          <mxGeometry relative="1" as="geometry" />
        </mxCell>
        <mxCell id="xelp54pi4x2RU-3CS8bb-167" value="&lt;div style=&quot;font-family: Consolas, &amp;quot;Courier New&amp;quot;, monospace; font-size: 14px; line-height: 19px; white-space: pre;&quot;&gt;&lt;font color=&quot;#0a0a0a&quot;&gt;(&quot;Número de passagens adulto:&quot;, numadultos)&lt;/font&gt;&lt;/div&gt;" style="strokeWidth=2;html=1;shape=mxgraph.flowchart.display;whiteSpace=wrap;" vertex="1" parent="1">
          <mxGeometry x="-2382.4700000000003" y="5900" width="350.95" height="90" as="geometry" />
        </mxCell>
        <mxCell id="xelp54pi4x2RU-3CS8bb-168" style="edgeStyle=orthogonalEdgeStyle;rounded=0;orthogonalLoop=1;jettySize=auto;html=1;entryX=0.5;entryY=0;entryDx=0;entryDy=0;entryPerimeter=0;" edge="1" parent="1" source="xelp54pi4x2RU-3CS8bb-165" target="xelp54pi4x2RU-3CS8bb-167">
          <mxGeometry relative="1" as="geometry" />
        </mxCell>
        <mxCell id="xelp54pi4x2RU-3CS8bb-172" style="edgeStyle=orthogonalEdgeStyle;rounded=0;orthogonalLoop=1;jettySize=auto;html=1;entryX=0.948;entryY=0.536;entryDx=0;entryDy=0;entryPerimeter=0;" edge="1" parent="1" source="xelp54pi4x2RU-3CS8bb-169" target="xelp54pi4x2RU-3CS8bb-173">
          <mxGeometry relative="1" as="geometry">
            <mxPoint x="-2570" y="6110" as="targetPoint" />
          </mxGeometry>
        </mxCell>
        <mxCell id="xelp54pi4x2RU-3CS8bb-169" value="&lt;div style=&quot;font-family: Consolas, &amp;quot;Courier New&amp;quot;, monospace; font-size: 14px; line-height: 19px; white-space: pre;&quot;&gt;&lt;font color=&quot;#0a0a0a&quot;&gt;(&quot;Número de passageiros:&quot;, passageiros)&lt;/font&gt;&lt;/div&gt;" style="strokeWidth=2;html=1;shape=mxgraph.flowchart.display;whiteSpace=wrap;" vertex="1" parent="1">
          <mxGeometry x="-2353.23" y="6060" width="294.47" height="100" as="geometry" />
        </mxCell>
        <mxCell id="xelp54pi4x2RU-3CS8bb-171" style="edgeStyle=orthogonalEdgeStyle;rounded=0;orthogonalLoop=1;jettySize=auto;html=1;entryX=0.5;entryY=0;entryDx=0;entryDy=0;entryPerimeter=0;" edge="1" parent="1" source="xelp54pi4x2RU-3CS8bb-167" target="xelp54pi4x2RU-3CS8bb-169">
          <mxGeometry relative="1" as="geometry" />
        </mxCell>
        <mxCell id="xelp54pi4x2RU-3CS8bb-176" style="edgeStyle=orthogonalEdgeStyle;rounded=0;orthogonalLoop=1;jettySize=auto;html=1;" edge="1" parent="1" source="xelp54pi4x2RU-3CS8bb-173" target="xelp54pi4x2RU-3CS8bb-180">
          <mxGeometry relative="1" as="geometry">
            <mxPoint x="-2850.38" y="6285" as="targetPoint" />
          </mxGeometry>
        </mxCell>
        <mxCell id="xelp54pi4x2RU-3CS8bb-189" style="edgeStyle=orthogonalEdgeStyle;rounded=0;orthogonalLoop=1;jettySize=auto;html=1;entryX=1.006;entryY=0.638;entryDx=0;entryDy=0;entryPerimeter=0;" edge="1" parent="1" source="xelp54pi4x2RU-3CS8bb-173" target="xelp54pi4x2RU-3CS8bb-190">
          <mxGeometry relative="1" as="geometry">
            <mxPoint x="-3240" y="6105" as="targetPoint" />
          </mxGeometry>
        </mxCell>
        <mxCell id="xelp54pi4x2RU-3CS8bb-173" value="classe===&quot;economica&quot;" style="strokeWidth=2;html=1;shape=mxgraph.flowchart.decision;whiteSpace=wrap;" vertex="1" parent="1">
          <mxGeometry x="-2980" y="6050" width="259.24" height="110" as="geometry" />
        </mxCell>
        <mxCell id="xelp54pi4x2RU-3CS8bb-174" value="sim" style="text;html=1;align=center;verticalAlign=middle;whiteSpace=wrap;rounded=0;rotation=90;" vertex="1" parent="1">
          <mxGeometry x="690" y="5720" width="60" height="30" as="geometry" />
        </mxCell>
        <mxCell id="xelp54pi4x2RU-3CS8bb-178" value="sim" style="text;html=1;align=center;verticalAlign=middle;whiteSpace=wrap;rounded=0;rotation=90;" vertex="1" parent="1">
          <mxGeometry x="-2860" y="6190" width="60" height="30" as="geometry" />
        </mxCell>
        <mxCell id="xelp54pi4x2RU-3CS8bb-182" style="edgeStyle=orthogonalEdgeStyle;rounded=0;orthogonalLoop=1;jettySize=auto;html=1;" edge="1" parent="1" source="xelp54pi4x2RU-3CS8bb-180" target="xelp54pi4x2RU-3CS8bb-183">
          <mxGeometry relative="1" as="geometry">
            <mxPoint x="-2850.38" y="6470" as="targetPoint" />
          </mxGeometry>
        </mxCell>
        <mxCell id="xelp54pi4x2RU-3CS8bb-180" value="&lt;span style=&quot;color: rgb(10, 10, 10); font-family: Consolas, &amp;quot;Courier New&amp;quot;, monospace; font-size: 14px; white-space: pre;&quot;&gt;(&quot;Classe:&quot;, classe)&lt;/span&gt;" style="strokeWidth=2;html=1;shape=mxgraph.flowchart.display;whiteSpace=wrap;" vertex="1" parent="1">
          <mxGeometry x="-2945.63" y="6260" width="190.5" height="90" as="geometry" />
        </mxCell>
        <mxCell id="xelp54pi4x2RU-3CS8bb-184" style="edgeStyle=orthogonalEdgeStyle;rounded=0;orthogonalLoop=1;jettySize=auto;html=1;" edge="1" parent="1" source="xelp54pi4x2RU-3CS8bb-183" target="xelp54pi4x2RU-3CS8bb-185">
          <mxGeometry relative="1" as="geometry">
            <mxPoint x="-2850.385" y="6660" as="targetPoint" />
          </mxGeometry>
        </mxCell>
        <mxCell id="xelp54pi4x2RU-3CS8bb-183" value="&lt;div style=&quot;font-family: Consolas, &amp;quot;Courier New&amp;quot;, monospace; font-size: 14px; line-height: 19px; white-space: pre;&quot;&gt;&lt;font color=&quot;#0a0a0a&quot;&gt;(&quot;Valor passagem econômica crianças:&quot;, criancaafrieco)&lt;/font&gt;&lt;/div&gt;" style="strokeWidth=2;html=1;shape=mxgraph.flowchart.display;whiteSpace=wrap;" vertex="1" parent="1">
          <mxGeometry x="-3075.1" y="6455" width="449.43" height="105" as="geometry" />
        </mxCell>
        <mxCell id="xelp54pi4x2RU-3CS8bb-186" style="edgeStyle=orthogonalEdgeStyle;rounded=0;orthogonalLoop=1;jettySize=auto;html=1;" edge="1" parent="1" source="xelp54pi4x2RU-3CS8bb-185" target="xelp54pi4x2RU-3CS8bb-187">
          <mxGeometry relative="1" as="geometry">
            <mxPoint x="-2850.375" y="6860" as="targetPoint" />
          </mxGeometry>
        </mxCell>
        <mxCell id="xelp54pi4x2RU-3CS8bb-185" value="&lt;div style=&quot;font-family: Consolas, &amp;quot;Courier New&amp;quot;, monospace; font-size: 14px; line-height: 19px; white-space: pre;&quot;&gt;&lt;font color=&quot;#0a0a0a&quot;&gt;(&quot;Valor passagem econômica adultos:&quot;, adultoafrieco)&lt;/font&gt;&lt;/div&gt;" style="strokeWidth=2;html=1;shape=mxgraph.flowchart.display;whiteSpace=wrap;" vertex="1" parent="1">
          <mxGeometry x="-3057.59" y="6640" width="414.43" height="120" as="geometry" />
        </mxCell>
        <mxCell id="xelp54pi4x2RU-3CS8bb-187" value="&lt;div style=&quot;font-family: Consolas, &amp;quot;Courier New&amp;quot;, monospace; font-size: 14px; line-height: 19px; white-space: pre;&quot;&gt;&lt;font color=&quot;#0a0a0a&quot;&gt;(&quot;Valor total das passagens:&quot;, ttafrieco)&lt;/font&gt;&lt;/div&gt;" style="strokeWidth=2;html=1;shape=mxgraph.flowchart.display;whiteSpace=wrap;" vertex="1" parent="1">
          <mxGeometry x="-3047.6" y="6835" width="394.43" height="85" as="geometry" />
        </mxCell>
        <mxCell id="xelp54pi4x2RU-3CS8bb-191" style="edgeStyle=orthogonalEdgeStyle;rounded=0;orthogonalLoop=1;jettySize=auto;html=1;" edge="1" parent="1" source="xelp54pi4x2RU-3CS8bb-190" target="xelp54pi4x2RU-3CS8bb-192">
          <mxGeometry relative="1" as="geometry">
            <mxPoint x="-3414.75" y="6290" as="targetPoint" />
          </mxGeometry>
        </mxCell>
        <mxCell id="xelp54pi4x2RU-3CS8bb-190" value="&lt;span style=&quot;color: rgb(10, 10, 10); font-family: Consolas, &amp;quot;Courier New&amp;quot;, monospace; font-size: 14px; white-space: pre;&quot;&gt;(&quot;Classe:&quot;, classe)&lt;/span&gt;" style="strokeWidth=2;html=1;shape=mxgraph.flowchart.display;whiteSpace=wrap;" vertex="1" parent="1">
          <mxGeometry x="-3510" y="6048" width="190.5" height="90" as="geometry" />
        </mxCell>
        <mxCell id="xelp54pi4x2RU-3CS8bb-193" style="edgeStyle=orthogonalEdgeStyle;rounded=0;orthogonalLoop=1;jettySize=auto;html=1;" edge="1" parent="1" source="xelp54pi4x2RU-3CS8bb-192" target="xelp54pi4x2RU-3CS8bb-194">
          <mxGeometry relative="1" as="geometry">
            <mxPoint x="-3414.745" y="6500" as="targetPoint" />
          </mxGeometry>
        </mxCell>
        <mxCell id="xelp54pi4x2RU-3CS8bb-192" value="&lt;div style=&quot;font-family: Consolas, &amp;quot;Courier New&amp;quot;, monospace; font-size: 14px; line-height: 19px; white-space: pre;&quot;&gt;&lt;font color=&quot;#0a0a0a&quot;&gt;(&quot;Valor passagem executiva crianças:&quot;, criancaafriexe)&lt;/font&gt;&lt;/div&gt;" style="strokeWidth=2;html=1;shape=mxgraph.flowchart.display;whiteSpace=wrap;" vertex="1" parent="1">
          <mxGeometry x="-3647.37" y="6260" width="465.25" height="120" as="geometry" />
        </mxCell>
        <mxCell id="xelp54pi4x2RU-3CS8bb-195" style="edgeStyle=orthogonalEdgeStyle;rounded=0;orthogonalLoop=1;jettySize=auto;html=1;" edge="1" parent="1" source="xelp54pi4x2RU-3CS8bb-194" target="xelp54pi4x2RU-3CS8bb-196">
          <mxGeometry relative="1" as="geometry">
            <mxPoint x="-3414.74" y="6670" as="targetPoint" />
          </mxGeometry>
        </mxCell>
        <mxCell id="xelp54pi4x2RU-3CS8bb-194" value="&lt;div style=&quot;font-family: Consolas, &amp;quot;Courier New&amp;quot;, monospace; font-size: 14px; line-height: 19px; white-space: pre;&quot;&gt;&lt;font color=&quot;#0a0a0a&quot;&gt;(&quot;Valor passagem executiva adultos:&quot;, adultoafriexe)&lt;/font&gt;&lt;/div&gt;" style="strokeWidth=2;html=1;shape=mxgraph.flowchart.display;whiteSpace=wrap;" vertex="1" parent="1">
          <mxGeometry x="-3633.4300000000003" y="6480" width="437.38" height="110" as="geometry" />
        </mxCell>
        <mxCell id="xelp54pi4x2RU-3CS8bb-196" value="&lt;div style=&quot;font-family: Consolas, &amp;quot;Courier New&amp;quot;, monospace; font-size: 14px; line-height: 19px; white-space: pre;&quot;&gt;&lt;font color=&quot;#0a0a0a&quot;&gt;(&quot;Valor total das passagens:&quot;, ttafriexe)&lt;/font&gt;&lt;/div&gt;" style="strokeWidth=2;html=1;shape=mxgraph.flowchart.display;whiteSpace=wrap;" vertex="1" parent="1">
          <mxGeometry x="-3577.38" y="6670" width="325.26" height="90" as="geometry" />
        </mxCell>
        <mxCell id="xelp54pi4x2RU-3CS8bb-198" value="não" style="text;html=1;align=center;verticalAlign=middle;whiteSpace=wrap;rounded=0;" vertex="1" parent="1">
          <mxGeometry x="-2481" y="5350" width="60" height="30" as="geometry" />
        </mxCell>
        <mxCell id="xelp54pi4x2RU-3CS8bb-199" value="sim" style="text;html=1;align=center;verticalAlign=middle;whiteSpace=wrap;rounded=0;rotation=90;" vertex="1" parent="1">
          <mxGeometry x="-2204.15" y="5460" width="60" height="30" as="geometry" />
        </mxCell>
        <mxCell id="xelp54pi4x2RU-3CS8bb-204" style="edgeStyle=orthogonalEdgeStyle;rounded=0;orthogonalLoop=1;jettySize=auto;html=1;entryX=0.5;entryY=0;entryDx=0;entryDy=0;entryPerimeter=0;" edge="1" parent="1" source="xelp54pi4x2RU-3CS8bb-203" target="xelp54pi4x2RU-3CS8bb-205">
          <mxGeometry relative="1" as="geometry">
            <mxPoint x="-2651.58" y="5550" as="targetPoint" />
          </mxGeometry>
        </mxCell>
        <mxCell id="xelp54pi4x2RU-3CS8bb-229" style="edgeStyle=orthogonalEdgeStyle;rounded=0;orthogonalLoop=1;jettySize=auto;html=1;entryX=0;entryY=0.5;entryDx=0;entryDy=0;entryPerimeter=0;" edge="1" parent="1" target="xelp54pi4x2RU-3CS8bb-234">
          <mxGeometry relative="1" as="geometry">
            <mxPoint x="-4126" y="7111" as="targetPoint" />
            <mxPoint x="-2755.13" y="5316.004444444445" as="sourcePoint" />
            <Array as="points">
              <mxPoint x="-4380" y="5316" />
              <mxPoint x="-4380" y="7106" />
              <mxPoint x="-4320" y="7106" />
              <mxPoint x="-4320" y="7111" />
              <mxPoint x="-4090" y="7111" />
            </Array>
          </mxGeometry>
        </mxCell>
        <mxCell id="xelp54pi4x2RU-3CS8bb-203" value="destino===&quot;europa&quot;" style="strokeWidth=2;html=1;shape=mxgraph.flowchart.decision;whiteSpace=wrap;" vertex="1" parent="1">
          <mxGeometry x="-2770" y="5324.5" width="236.84" height="123.75" as="geometry" />
        </mxCell>
        <mxCell id="xelp54pi4x2RU-3CS8bb-206" style="edgeStyle=orthogonalEdgeStyle;rounded=0;orthogonalLoop=1;jettySize=auto;html=1;" edge="1" parent="1" source="xelp54pi4x2RU-3CS8bb-205" target="xelp54pi4x2RU-3CS8bb-207">
          <mxGeometry relative="1" as="geometry">
            <mxPoint x="-2651.58" y="5720" as="targetPoint" />
          </mxGeometry>
        </mxCell>
        <mxCell id="xelp54pi4x2RU-3CS8bb-205" value="&lt;span style=&quot;color: rgb(10, 10, 10); font-family: Consolas, &amp;quot;Courier New&amp;quot;, monospace; font-size: 14px; white-space: pre;&quot;&gt;(&quot;Região de destino:&quot;, destino)&lt;/span&gt;" style="strokeWidth=2;html=1;shape=mxgraph.flowchart.display;whiteSpace=wrap;" vertex="1" parent="1">
          <mxGeometry x="-2791.58" y="5540" width="280" height="89" as="geometry" />
        </mxCell>
        <mxCell id="xelp54pi4x2RU-3CS8bb-208" style="edgeStyle=orthogonalEdgeStyle;rounded=0;orthogonalLoop=1;jettySize=auto;html=1;entryX=0.5;entryY=0;entryDx=0;entryDy=0;entryPerimeter=0;" edge="1" parent="1" source="xelp54pi4x2RU-3CS8bb-207" target="xelp54pi4x2RU-3CS8bb-209">
          <mxGeometry relative="1" as="geometry">
            <mxPoint x="-2651.58" y="5880" as="targetPoint" />
          </mxGeometry>
        </mxCell>
        <mxCell id="xelp54pi4x2RU-3CS8bb-207" value="&lt;div style=&quot;font-family: Consolas, &amp;quot;Courier New&amp;quot;, monospace; font-size: 14px; line-height: 19px; white-space: pre;&quot;&gt;&lt;font color=&quot;#0a0a0a&quot;&gt;(&quot;Número de passagens criança:&quot;, numcriancas)&lt;/font&gt;&lt;/div&gt;" style="strokeWidth=2;html=1;shape=mxgraph.flowchart.display;whiteSpace=wrap;" vertex="1" parent="1">
          <mxGeometry x="-2837.27" y="5700" width="371.38" height="100" as="geometry" />
        </mxCell>
        <mxCell id="xelp54pi4x2RU-3CS8bb-210" style="edgeStyle=orthogonalEdgeStyle;rounded=0;orthogonalLoop=1;jettySize=auto;html=1;" edge="1" parent="1" source="xelp54pi4x2RU-3CS8bb-209">
          <mxGeometry relative="1" as="geometry">
            <mxPoint x="-3170" y="5935" as="targetPoint" />
          </mxGeometry>
        </mxCell>
        <mxCell id="xelp54pi4x2RU-3CS8bb-209" value="&lt;div style=&quot;font-family: Consolas, &amp;quot;Courier New&amp;quot;, monospace; font-size: 14px; line-height: 19px; white-space: pre;&quot;&gt;&lt;font color=&quot;#0a0a0a&quot;&gt;(&quot;Número de passagens adulto:&quot;, numadultos)&lt;/font&gt;&lt;/div&gt;" style="strokeWidth=2;html=1;shape=mxgraph.flowchart.display;whiteSpace=wrap;" vertex="1" parent="1">
          <mxGeometry x="-2827.05" y="5890" width="350.95" height="90" as="geometry" />
        </mxCell>
        <mxCell id="xelp54pi4x2RU-3CS8bb-213" style="edgeStyle=orthogonalEdgeStyle;rounded=0;orthogonalLoop=1;jettySize=auto;html=1;" edge="1" parent="1" source="xelp54pi4x2RU-3CS8bb-211" target="xelp54pi4x2RU-3CS8bb-212">
          <mxGeometry relative="1" as="geometry" />
        </mxCell>
        <mxCell id="xelp54pi4x2RU-3CS8bb-211" value="&lt;div style=&quot;font-family: Consolas, &amp;quot;Courier New&amp;quot;, monospace; font-size: 14px; line-height: 19px; white-space: pre;&quot;&gt;&lt;font color=&quot;#0a0a0a&quot;&gt;(&quot;Número de passageiros:&quot;, passageiros)&lt;/font&gt;&lt;/div&gt;" style="strokeWidth=2;html=1;shape=mxgraph.flowchart.display;whiteSpace=wrap;" vertex="1" parent="1">
          <mxGeometry x="-3460" y="5880" width="294.47" height="100" as="geometry" />
        </mxCell>
        <mxCell id="xelp54pi4x2RU-3CS8bb-214" style="edgeStyle=orthogonalEdgeStyle;rounded=0;orthogonalLoop=1;jettySize=auto;html=1;" edge="1" parent="1" source="xelp54pi4x2RU-3CS8bb-212" target="xelp54pi4x2RU-3CS8bb-215">
          <mxGeometry relative="1" as="geometry">
            <mxPoint x="-3880.38" y="6090" as="targetPoint" />
          </mxGeometry>
        </mxCell>
        <mxCell id="xelp54pi4x2RU-3CS8bb-212" value="classe===&quot;economica&quot;" style="strokeWidth=2;html=1;shape=mxgraph.flowchart.decision;whiteSpace=wrap;" vertex="1" parent="1">
          <mxGeometry x="-4010" y="5875" width="259.24" height="110" as="geometry" />
        </mxCell>
        <mxCell id="xelp54pi4x2RU-3CS8bb-216" style="edgeStyle=orthogonalEdgeStyle;rounded=0;orthogonalLoop=1;jettySize=auto;html=1;entryX=0.548;entryY=0.024;entryDx=0;entryDy=0;entryPerimeter=0;" edge="1" parent="1" source="xelp54pi4x2RU-3CS8bb-215" target="xelp54pi4x2RU-3CS8bb-217">
          <mxGeometry relative="1" as="geometry">
            <mxPoint x="-3880.385" y="6280" as="targetPoint" />
          </mxGeometry>
        </mxCell>
        <mxCell id="xelp54pi4x2RU-3CS8bb-215" value="&lt;font color=&quot;#0a0a0a&quot;&gt;(&quot;Classe:&quot;, classe)&lt;/font&gt;" style="strokeWidth=2;html=1;shape=mxgraph.flowchart.display;whiteSpace=wrap;" vertex="1" parent="1">
          <mxGeometry x="-3995.43" y="6030" width="230.1" height="90" as="geometry" />
        </mxCell>
        <mxCell id="xelp54pi4x2RU-3CS8bb-218" style="edgeStyle=orthogonalEdgeStyle;rounded=0;orthogonalLoop=1;jettySize=auto;html=1;entryX=0.5;entryY=0;entryDx=0;entryDy=0;entryPerimeter=0;" edge="1" parent="1" source="xelp54pi4x2RU-3CS8bb-217" target="xelp54pi4x2RU-3CS8bb-219">
          <mxGeometry relative="1" as="geometry">
            <mxPoint x="-3896.5249999999996" y="6420" as="targetPoint" />
          </mxGeometry>
        </mxCell>
        <mxCell id="xelp54pi4x2RU-3CS8bb-217" value="&lt;div style=&quot;font-family: Consolas, &amp;quot;Courier New&amp;quot;, monospace; font-size: 14px; line-height: 19px; white-space: pre;&quot;&gt;&lt;div style=&quot;line-height: 19px;&quot;&gt;&lt;font color=&quot;#0a0a0a&quot;&gt;(&quot;Valor passagem econômica crianças:&quot;, criancaeuroeco&quot;&lt;/font&gt;&lt;/div&gt;&lt;/div&gt;" style="strokeWidth=2;html=1;shape=mxgraph.flowchart.display;whiteSpace=wrap;" vertex="1" parent="1">
          <mxGeometry x="-4121.5" y="6150" width="441" height="120" as="geometry" />
        </mxCell>
        <mxCell id="xelp54pi4x2RU-3CS8bb-227" style="edgeStyle=orthogonalEdgeStyle;rounded=0;orthogonalLoop=1;jettySize=auto;html=1;" edge="1" parent="1" source="xelp54pi4x2RU-3CS8bb-219" target="xelp54pi4x2RU-3CS8bb-228">
          <mxGeometry relative="1" as="geometry">
            <mxPoint x="-3900" y="6480" as="targetPoint" />
          </mxGeometry>
        </mxCell>
        <mxCell id="xelp54pi4x2RU-3CS8bb-219" value="&lt;div style=&quot;font-family: Consolas, &amp;quot;Courier New&amp;quot;, monospace; font-size: 14px; line-height: 19px; white-space: pre;&quot;&gt;&lt;div style=&quot;line-height: 19px;&quot;&gt;&lt;font color=&quot;#0a0a0a&quot;&gt;(&quot;Valor passagem econômica adultos:&quot;, adultoeuroeco)&lt;/font&gt;&lt;/div&gt;&lt;/div&gt;" style="strokeWidth=2;html=1;shape=mxgraph.flowchart.display;whiteSpace=wrap;" vertex="1" parent="1">
          <mxGeometry x="-4113.62" y="6306.25" width="427.24" height="103.75" as="geometry" />
        </mxCell>
        <mxCell id="xelp54pi4x2RU-3CS8bb-236" style="edgeStyle=orthogonalEdgeStyle;rounded=0;orthogonalLoop=1;jettySize=auto;html=1;entryX=0.028;entryY=0.273;entryDx=0;entryDy=0;entryPerimeter=0;" edge="1" parent="1" source="xelp54pi4x2RU-3CS8bb-228" target="xelp54pi4x2RU-3CS8bb-234">
          <mxGeometry relative="1" as="geometry">
            <mxPoint x="-3899.995" y="7060" as="targetPoint" />
            <Array as="points">
              <mxPoint x="-3860" y="7083" />
            </Array>
          </mxGeometry>
        </mxCell>
        <mxCell id="xelp54pi4x2RU-3CS8bb-228" value="&lt;div style=&quot;font-family: Consolas, &amp;quot;Courier New&amp;quot;, monospace; font-size: 14px; line-height: 19px; white-space: pre;&quot;&gt;&lt;font color=&quot;#0a0a0a&quot;&gt;(&quot;Valor total das passagens:&quot;, tteuroeco)&lt;/font&gt;&lt;/div&gt;" style="strokeWidth=2;html=1;shape=mxgraph.flowchart.display;whiteSpace=wrap;" vertex="1" parent="1">
          <mxGeometry x="-4067.33" y="6460" width="334.67" height="90" as="geometry" />
        </mxCell>
        <mxCell id="xelp54pi4x2RU-3CS8bb-232" value="não" style="text;strokeColor=none;align=center;fillColor=none;html=1;verticalAlign=middle;whiteSpace=wrap;rounded=0;" vertex="1" parent="1">
          <mxGeometry x="-2970" y="5350" width="60" height="30" as="geometry" />
        </mxCell>
        <mxCell id="xelp54pi4x2RU-3CS8bb-234" value="FIM ALGORITMO" style="strokeWidth=2;html=1;shape=mxgraph.flowchart.terminator;whiteSpace=wrap;" vertex="1" parent="1">
          <mxGeometry x="-2620" y="7740" width="450.01" height="130" as="geometry" />
        </mxCell>
        <mxCell id="xelp54pi4x2RU-3CS8bb-237" style="edgeStyle=orthogonalEdgeStyle;rounded=0;orthogonalLoop=1;jettySize=auto;html=1;entryX=0.234;entryY=0.1;entryDx=0;entryDy=0;entryPerimeter=0;" edge="1" parent="1" source="xelp54pi4x2RU-3CS8bb-196" target="xelp54pi4x2RU-3CS8bb-234">
          <mxGeometry relative="1" as="geometry">
            <Array as="points">
              <mxPoint x="-3415" y="7100" />
              <mxPoint x="-3265" y="7100" />
            </Array>
          </mxGeometry>
        </mxCell>
        <mxCell id="xelp54pi4x2RU-3CS8bb-238" style="edgeStyle=orthogonalEdgeStyle;rounded=0;orthogonalLoop=1;jettySize=auto;html=1;entryX=0.5;entryY=0;entryDx=0;entryDy=0;entryPerimeter=0;" edge="1" parent="1" source="xelp54pi4x2RU-3CS8bb-187" target="xelp54pi4x2RU-3CS8bb-234">
          <mxGeometry relative="1" as="geometry" />
        </mxCell>
        <mxCell id="xelp54pi4x2RU-3CS8bb-240" style="edgeStyle=orthogonalEdgeStyle;rounded=0;orthogonalLoop=1;jettySize=auto;html=1;entryX=0.674;entryY=0.077;entryDx=0;entryDy=0;entryPerimeter=0;" edge="1" parent="1" source="xelp54pi4x2RU-3CS8bb-154" target="xelp54pi4x2RU-3CS8bb-234">
          <mxGeometry relative="1" as="geometry" />
        </mxCell>
        <mxCell id="xelp54pi4x2RU-3CS8bb-241" style="edgeStyle=orthogonalEdgeStyle;rounded=0;orthogonalLoop=1;jettySize=auto;html=1;entryX=0.811;entryY=0.013;entryDx=0;entryDy=0;entryPerimeter=0;" edge="1" parent="1" source="xelp54pi4x2RU-3CS8bb-148" target="xelp54pi4x2RU-3CS8bb-234">
          <mxGeometry relative="1" as="geometry" />
        </mxCell>
      </root>
    </mxGraphModel>
  </diagram>
</mxfile>
